<svg id="Layer_1" data-name="Layer 1" xmlns="http://www.w3.org/2000/svg" xmlns:xlink="http://www.w3.org/1999/xlink" viewBox="0 0 4500 2500"><defs><style>.cls-1{fill:none;}.cls-2{fill:#aed3f0;}.cls-3{fill:#c3dcf3;}.cls-10,.cls-12,.cls-13,.cls-14,.cls-15,.cls-16,.cls-17,.cls-18,.cls-19,.cls-20,.cls-22,.cls-23,.cls-25,.cls-26,.cls-27,.cls-28,.cls-29,.cls-3,.cls-30,.cls-31,.cls-32,.cls-33,.cls-34,.cls-35,.cls-36,.cls-37,.cls-38,.cls-39,.cls-40,.cls-42,.cls-9{fill-rule:evenodd;}.cls-4{fill:#348579;}.cls-5{fill:#2a6c62;}.cls-6{fill:#255f56;}.cls-7{fill:#2a6b2a;}.cls-8{fill:#44ae9e;}.cls-9{fill:#dbeaf8;}.cls-10{fill-opacity:0.16;}.cls-11{clip-path:url(#clip-path);}.cls-12{fill:#ffab65;}.cls-13{fill:#ffc787;}.cls-14{fill:#edd573;}.cls-15{fill:#c09f19;}.cls-16{fill:#8f7713;}.cls-17{fill:#f7edc2;}.cls-18{fill:#f0de8e;}.cls-19{fill:#fff;}.cls-20,.cls-39,.cls-45{fill:#ec6198;}.cls-21{fill:#132f4a;}.cls-22{fill:#ff97c0;fill-opacity:0.4;}.cls-23{fill-opacity:0.25;}.cls-24{fill:#987e14;}.cls-25{fill:#e4c02e;}.cls-26{fill:#ebd063;}.cls-27{fill:url(#linear-gradient);}.cls-28{fill:url(#linear-gradient-2);}.cls-29{fill:url(#linear-gradient-3);}.cls-30{fill:url(#linear-gradient-4);}.cls-31{fill:url(#linear-gradient-5);}.cls-32{fill:url(#linear-gradient-6);}.cls-33{fill:url(#linear-gradient-7);}.cls-34{fill:url(#linear-gradient-8);}.cls-35{fill:url(#linear-gradient-9);}.cls-36{fill:url(#linear-gradient-10);}.cls-37{fill:#a24268;}.cls-37,.cls-39,.cls-40{fill-opacity:0.98;}.cls-38{fill:#eb6097;}.cls-40{fill:#eddce3;}.cls-41{fill:#f7accb;}.cls-42{fill:#22365d;}.cls-43{fill:#144f7b;}.cls-44{fill:#21355d;}.cls-46{fill:#134f7b;}</style><clipPath id="clip-path"><rect class="cls-1" width="4500" height="2499.98"/></clipPath><linearGradient id="linear-gradient" x1="1288.21" y1="1782.03" x2="1289.4" y2="1782.12" gradientTransform="matrix(142.65, -118.44, 87.36, 118.66, -336528.31, -57675.62)" gradientUnits="userSpaceOnUse"><stop offset="0" stop-color="#fff" stop-opacity="0"/><stop offset="1" stop-color="#fff"/></linearGradient><linearGradient id="linear-gradient-2" x1="1288.19" y1="1781.86" x2="1289.37" y2="1781.95" gradientTransform="matrix(142.65, -118.44, 87.36, 118.66, -336635.38, -57770.43)" xlink:href="#linear-gradient"/><linearGradient id="linear-gradient-3" x1="1288.16" y1="1781.68" x2="1289.34" y2="1781.77" gradientTransform="matrix(142.65, -118.44, 87.36, 118.66, -336742.45, -57865.23)" xlink:href="#linear-gradient"/><linearGradient id="linear-gradient-4" x1="1288.13" y1="1781.5" x2="1289.31" y2="1781.59" gradientTransform="matrix(142.65, -118.44, 87.36, 118.66, -336851.82, -57959.5)" xlink:href="#linear-gradient"/><linearGradient id="linear-gradient-5" x1="1288.1" y1="1781.33" x2="1289.28" y2="1781.41" gradientTransform="matrix(142.65, -118.44, 87.36, 118.66, -336960.93, -58053.6)" xlink:href="#linear-gradient"/><linearGradient id="linear-gradient-6" x1="1288.07" y1="1781.15" x2="1289.25" y2="1781.24" gradientTransform="matrix(142.65, -118.44, 87.36, 118.66, -337066.16, -58147.22)" xlink:href="#linear-gradient"/><linearGradient id="linear-gradient-7" x1="1288.04" y1="1780.98" x2="1289.22" y2="1781.06" gradientTransform="matrix(142.65, -118.44, 87.36, 118.66, -337174.12, -58241.23)" xlink:href="#linear-gradient"/><linearGradient id="linear-gradient-8" x1="1288.01" y1="1780.8" x2="1289.19" y2="1780.89" gradientTransform="matrix(142.65, -118.44, 87.36, 118.66, -337281.07, -58333.84)" xlink:href="#linear-gradient"/><linearGradient id="linear-gradient-9" x1="1287.98" y1="1780.63" x2="1289.16" y2="1780.71" gradientTransform="matrix(142.65, -118.44, 87.36, 118.66, -337389.92, -58428.06)" xlink:href="#linear-gradient"/><linearGradient id="linear-gradient-10" x1="1287.95" y1="1780.45" x2="1289.14" y2="1780.54" gradientTransform="matrix(142.65, -118.44, 87.36, 118.66, -337497.23, -58523.19)" xlink:href="#linear-gradient"/></defs><g id="c57"><rect class="cls-2" width="4500" height="2499.98"/><path class="cls-3" d="M11.74,2500c362.49-469.2,925.18-701.23,1532.73-551.72,388,95.48,707.15,340.44,1038.72,551.72ZM4500,1500.22c-50.42-32.84-97.34-71.41-138.41-119C4191.1,1183.64,4142,887,4072.34,644.35,3998.94,388.71,3845.62,167.45,3646.27,0H4500ZM1885.15,0C1789.37,70,1694.24,140.9,1596,207.12c-444.85,300-927,495.48-1452.46,592.57A1356.33,1356.33,0,0,1,0,818.81V0Z"/><path class="cls-4" d="M1088.07,787.36s163.74,615,45.21,1020.94c48.86,10.57,75.79,0,75.79,0s70.09-779.06-121-1020.94"/><path class="cls-4" d="M1389.74,1105.05s-150.46,459.69-147,689.53c-30.77,85.76-79.16,0-79.16,0s45.54-463.12,226.2-689.53"/><path class="cls-5" d="M1389.74,1276.58s-92,382.84-77.58,570.43c-19.24,71.56-60.84,3.86-60.84,3.86s11.2-380.55,138.42-574.29"/><path class="cls-4" d="M1416.38,1772.28s161.43-190.39,274.28-224.69c27.34-29.16,0-27.45,0-27.45s-249.62,128.64-316.3,260.72c13.67,34.3,42-8.58,42-8.58"/><path class="cls-5" d="M1429.69,1556.53s-92.76,98.46-101.8,285.81c-40.74,8.85-47.11-19.63-47.11-19.63s83.31-312.49,213.25-323.82c-41,28.11-64.34,57.64-64.34,57.64"/><path class="cls-4" d="M1182.21,1720.25s-13.6-186.59-172.07-319.33c-78.13-65.45-60.45-115.41-124.79-133s-157.94-72.39-183.29-97.81-406-114.65-503.46-79.44c109.19,27.38,214.42,185,269,188.91s124.91,67.05,202.89,121.82,138.81,21,189.51,46.47,235.93,125.26,322.2,272.38"/><path class="cls-6" d="M1085.61,1571c-23.72-30.75-48.9-60.33-74.57-89.27-13-14.34-26.32-28.38-40.57-41.18-14.23-12.59-29.93-24-45.84-34.66a465.92,465.92,0,0,0-50-28.55c-17.25-8.64-35-17-51.73-27.49-16.8-10.16-32.41-23-47-35.23-14.84-11.59-31.51-21.36-48.42-30.49-68.25-35.88-140.67-64.12-212.39-93.29L298.9,1105.05c72.91,26.4,146.18,51.79,218.71,79.3s145.06,55.34,214.42,91.24c17.24,9.16,34.27,18.92,50.09,31.12,15.24,12.57,29.81,24.31,46.08,34.54,16.06,10.3,33.39,18.65,50.71,27.51a475.39,475.39,0,0,1,50.72,29.54c16.11,11.15,32,22.47,46.28,36.26,14.19,13.61,27.15,28.19,39.74,43.07,25.25,29.68,47.84,61.4,70,93.32"/><path class="cls-7" d="M904.13,1303a393,393,0,0,1,55.57,68.43,240.48,240.48,0,0,1,20.6,39.34c5.65,13.73,9.8,28.32,11,43.43l.21,2.73-2.7.41c-14.8,2.24-29.61,4.27-44.52,5.64s-29.9,2.22-44.89,1.83a274,274,0,0,1-44.74-4.35c-14.55-3.19-29.53-7.21-41.51-16.32,12.5,8.27,27.49,11.22,42,13.42a274,274,0,0,0,44.26,2.63c14.8-.32,29.6-1.09,44.36-2.63s29.41-3.76,44.06-6.12l-2.48,3.13c-1.92-28.68-15-55.74-29.5-80.75a412.84,412.84,0,0,0-24.28-36.46A438.93,438.93,0,0,0,904.13,1303"/><path class="cls-6" d="M808.78,1254.25c17.26,16.49,31.49,36,44.14,56.27s22.83,42.18,31.54,64.52l1.26,3.24-3.43.66a334.2,334.2,0,0,1-86.72,5.75c-28.85-2.32-58-8-83.69-21.52,26.7,11,55.46,15.46,84,16.75a366.86,366.86,0,0,0,42.85-.77c14.27-1.2,28.39-3.47,42.48-6L879,1377.1c-8.1-22.24-18.4-43.61-29.85-64.34-11.76-20.54-24.81-40.48-40.36-58.51"/><path class="cls-6" d="M629.84,1146.53a438.79,438.79,0,0,1,54.92,57.83c16.52,20.92,31.06,43.81,40.26,69.39l1.2,3.36-3.6.48q-39.12,5.19-78.54,7.16c-26.25,1.21-52.53,1.69-78.78.47,26.22-1.4,52.38-3,78.48-5.21q39.15-3,78.06-8.25l-2.38,3.84c-8.35-24.75-22.8-47.19-38.2-68.55a619.74,619.74,0,0,0-51.42-60.52"/><path class="cls-6" d="M471.42,1125.65a394,394,0,0,1,58.74,34.17,198.56,198.56,0,0,1,26.48,21.72c8.06,8.12,16,17,19.87,28.8l.76,2.28-2.17,1.08c-11.51,5.75-23.62,8.18-35.65,10.32s-24.15,3.55-36.25,4.69a686.43,686.43,0,0,1-72.81,2.21c24.17-2.08,48.31-4.14,72.29-7.16,12-1.43,23.95-3.07,35.77-5.28s23.61-5,34-9.86L571,1212c-3.1-10-10.42-18.86-18.09-26.75a263.64,263.64,0,0,0-25.28-22,589.77,589.77,0,0,0-56.25-37.56"/><path class="cls-8" d="M1134.87,838.87S1068.57,584.58,897,545.46,670.81,439.83,561.62,404.63s-214.48,50.85-214.48,50.85,130.63,2,256.4,92.91S964.26,806.6,1134.87,838.87"/><path class="cls-4" d="M1134.87,838.87s-80.79-165.39-252.36-204.51S671.4,498.75,562.21,463.54s-215.07-8.06-215.07-8.06,130.63,2,256.4,92.91S964.26,806.6,1134.87,838.87"/><path class="cls-4" d="M1637.92,1566.53s54.59-111.49,152.09-176,169.63-49.88,226.18-80.69,198.88-62.11,265.17-40.59,178.78,23.47,223.93,154.52c-44.55-27.39-116.69,7.82-194.68,35.21s-169.94-27.39-239,0-131.47,93.89-205.57,97.81-228.12,9.77-228.12,9.77"/><path class="cls-8" d="M1410.77,1566.53s-8.78-149.63,117-223,245.67-126.17,295.39-211.26,213.5-126.16,371.44-55.74c-117-5.87-266.15,105.62-424.09,246.46s-359.73,243.52-359.73,243.52"/><path class="cls-4" d="M1410.77,1566.53s-8.78-149.63,117-223,248.81-55.06,298.53-140.15,210.36-197.27,368.3-126.85c-117-5.87-266.15,105.62-424.09,246.46s-359.73,243.52-359.73,243.52"/><path class="cls-8" d="M1303.27,1566.53s20-348.33,168-416.44S1609,942.72,1767.7,868s284-197,485.65-175.59C2072.92,752.58,2023.09,837,1947.62,937.92s-164,148.79-196.39,188.17S1619.54,1297.23,1558.15,1318s-219.93,162.67-254.88,248.58"/><path class="cls-4" d="M1303.27,1566.53s64.48-300.74,212.42-368.86S1644,992.79,1802.62,918.09s249-247,450.73-225.66C2072.92,752.58,2023.09,837,1947.62,937.92s-164,148.79-196.39,188.17S1619.54,1297.23,1558.15,1318s-219.93,162.67-254.88,248.58"/><path class="cls-8" d="M1088.07,1582s-143.32-187.42-312-167.71-132.58,127.49-296.37,83.12-421.17,116-444.55,241.22c144.29-113.45,245.67-133,464.05-101.72s460.16-78.54,588.84-54.91"/><path class="cls-4" d="M1088.07,1582s-136.65-102.86-305.29-83.16-135.43,89.65-299.21,45.28-425,69.33-448.39,194.51c144.29-113.45,245.67-133,464.05-101.72s460.16-78.54,588.84-54.91"/><path class="cls-5" d="M1133.28,1808.3s35.9-178.38-152.17-279.58c83.78-3.43,180.17,101.2,208.06,253.85,10.79,70.33-55.89,25.73-55.89,25.73"/><path class="cls-8" d="M1088.07,1159.66s-132.58-168.21-81.89-418.6,66.29-242.54,132.6-356,113.08-254.28,249.57-266,117-93.9,249.57-31.3c-70.2-3.91-206.68,61.61-206.68,161.37S1402,419.3,1364,463.3s-23.4,146.71-64.34,217.13-108.22,267-152.08,324.22-32.17,174.58-29.26,183.38-30.22-28.37-30.22-28.37"/><path class="cls-8" d="M1392.25,1089.18s-74.1-305.07-15.6-492.85S1524.83,389,1614.53,287.27s163.78-58.69,163.78-58.69-50.69,70.42-58.49,266-91,339-214.48,442.08-113.09,152.5-113.09,152.5"/><path class="cls-8" d="M1068.58,1234.2s-93.6-321-280.77-395.33-198.88-43-331.47-50.85S163.86,842.8,89.76,901.47c195-58.67,397.78,34.75,526.46,109.31s452.36,223.42,452.36,223.42"/><path class="cls-4" d="M1068.58,1234.2S928.19,1021.58,741,947.25,570,812.71,437.41,804.88,163.86,842.8,89.76,901.47c195-58.67,397.78,34.75,526.46,109.31s452.36,223.42,452.36,223.42"/><path class="cls-4" d="M1363.33,1100c28.73-73.93,54.14-150.62,68.26-228.54,1.81-9.74,3.09-19.51,4.3-29.28,1.44-9.84,2.37-20.43,4.44-30.53a244.82,244.82,0,0,1,18.43-59.61c17.65-38.09,43.68-68.83,56.17-106.05,6.83-18.17,10.23-38,15.85-57.64,5.21-19.58,11.32-38.87,17.74-58A1019.29,1019.29,0,0,1,1593.71,418c17.43-36.39,37.22-71.82,61.43-104.15,24.18-32,53.29-61.93,90.23-78.4-36.45,17.54-64.38,48.05-87.47,80.43-23.09,32.73-41.72,68.42-58,105a1014.15,1014.15,0,0,0-41.65,112.66c-5.8,19.17-11.31,38.43-15.91,57.88-2.53,9.7-4.33,19.41-6.58,29.24l-3.5,15-4.44,14.84c-12.34,40-38.46,73-53.43,108.5a226.06,226.06,0,0,0-15.55,55.88c-1.7,9.67-2.23,19.19-3.41,29.29-1,10.24-2,20.46-3.61,30.56-5.78,40.52-15.32,80.08-26,119.25-10.88,39.16-23,77.62-37,116.06Z"/><path class="cls-4" d="M1376.07,690q14.31,49.26,29.81,98.06c5.38,16.19,10.58,32.42,16.4,48.39s12.14,31.93,20.52,46.14l-4.9-1q20.91-15,42.23-29.55c14.28-9.53,28.5-19.18,43.26-28,29.29-17.92,59.34-34.82,90.91-48.32-15.32,7.71-30.08,16.45-44.68,25.4q-22,13.2-43.41,27.39c-28.59,18.81-56.8,38.2-84.3,58.62l-3.05,2.26-1.84-3.22c-8.81-15.36-14.75-31.48-20.56-47.63-5.62-16.22-11-32.51-15.58-49q-14.2-49.34-24.81-99.58"/><path class="cls-4" d="M1444.46,533.3c2.65,34.1,7.1,68,12.53,101.67,5.77,33.6,12.51,67.06,22.67,99.48l-4.63-2c34.67-17.09,68.76-35.54,101.42-56.27,16.41-10.24,32.53-21,47.86-32.75s30.91-23.77,41.28-40.36c-9.38,17.22-24.47,30.41-39.09,43.1-15.06,12.39-30.91,23.78-47.07,34.65s-32.92,20.81-49.84,30.43-34.06,18.88-51.66,27.23l-3.55,1.68-1.09-3.7a655.56,655.56,0,0,1-21.24-100.72,828.66,828.66,0,0,1-7.59-102.42"/><path class="cls-4" d="M1524.24,410.94a758.2,758.2,0,0,0,.58,88.56c2.33,29.3,6,58.73,15.62,86.25l-4.81-1.82c14-8.33,28-16.85,41.2-26.59s26.06-19.92,38.48-30.68,24.62-21.78,36.36-33.33,23.45-23.16,34.42-35.5a570.39,570.39,0,0,1-67.17,72.95c-12.12,11.32-25.14,21.62-38.34,31.68a388.36,388.36,0,0,1-41.68,27.35l-3.54,2-1.24-3.82c-9.39-28.66-13.33-58.49-14.32-88.2a534.57,534.57,0,0,1,4.44-88.84"/><path class="cls-4" d="M1597.19,321.75a247.14,247.14,0,0,0-4.89,48.41c.33,16.1,2.15,32.21,7.94,46.94l-3.59-2c9.78-1.92,19.43-5.53,28.89-9.5a284.76,284.76,0,0,0,27.7-13.82c18.31-9.74,36-20.82,53.66-32a391.52,391.52,0,0,1-50.82,37,281.53,281.53,0,0,1-27.94,14.76c-9.63,4.38-19.6,8.32-30.41,10l-2.71.41-.87-2.45a122.17,122.17,0,0,1-6.62-49.43,172.07,172.07,0,0,1,9.66-48.3"/><path class="cls-4" d="M1109.14,1198.22a58.41,58.41,0,0,1-7.74-9.6c-2.1-3-3.66-6-5.48-9a155.26,155.26,0,0,1-8.15-18.47c-4.77-12.42-7.81-25.06-10.31-37.68a402.32,402.32,0,0,1-6.11-75.79c.2-50.35,7.24-99.83,16.86-148.44,10-48.44,20.64-97.05,39.53-143.66,9.3-23.2,20.75-45.36,31-67.31a371.45,371.45,0,0,0,24.61-67.93A1039.36,1039.36,0,0,1,1224,478.14c16.77-46.38,36.14-91.84,58.92-135.56s48.9-85.79,80.28-123.81c31.32-37.75,68.64-71.81,113.3-92.56C1432.3,148,1396,182.66,1365.74,220.85c-30.31,38.46-55.25,80.89-76.94,124.73s-39.86,89.47-55.47,135.84a1001.51,1001.51,0,0,0-37,142,386.29,386.29,0,0,1-23.5,71.13c-9.9,22.84-20.42,44.7-28.75,67.36-16.73,45.14-26.18,93.29-35.09,141.16-8.43,47.88-14.23,96.36-13.41,144.4a378.33,378.33,0,0,0,7.16,70.8c2.51,11.41,5.49,22.69,9.77,33.13a129.81,129.81,0,0,0,7,15.06c1.43,2.2,2.73,4.63,4.19,6.63a45.34,45.34,0,0,0,3.75,4.74Z"/><path class="cls-4" d="M1041.79,649.94q14.89,56,31.13,111.6c5.67,18.43,11.06,36.94,17.3,55.15,6.36,18,12.82,36.51,22.32,52.43l-4.92-.85c25-18.78,49.58-38,74.27-57.1l36.86-28.9c12.33-9.59,24.61-19.25,36.48-29.42-22.26,22-46,42.46-70.06,62.45s-48.73,39.2-73.42,58.41l-3,2.36-1.87-3.22c-10.14-17.4-16.2-35.81-22.5-54.19-6-18.43-11.53-37-16.45-55.71q-15-56.07-26.09-113"/><path class="cls-4" d="M1106.88,519.91c3.38,34,8.52,67.84,14.66,101.38,6.47,33.46,13.91,66.77,24.76,99l-4.68-1.92c34.31-17.81,68-37,100.22-58.4,16.2-10.58,32.08-21.67,47.16-33.76s30.41-24.41,40.42-41.2c-9,17.41-23.82,30.91-38.17,43.91-14.8,12.7-30.41,24.42-46.33,35.63S1212.45,686,1195.72,696s-33.65,19.6-51.07,28.31l-3.52,1.76-1.16-3.68a656.58,656.58,0,0,1-23.35-100.25,827.68,827.68,0,0,1-9.74-102.23"/><path class="cls-4" d="M1184.09,395.9a759.62,759.62,0,0,0,2.44,88.54c3,29.24,7.19,58.59,17.41,85.9l-4.81-1.72c13.85-8.63,27.64-17.44,40.62-27.46s25.62-20.47,37.81-31.48,24.18-22.29,35.66-34.09,23-23.65,33.67-36.23a571.11,571.11,0,0,1-65.63,74.36c-11.87,11.57-24.67,22.15-37.67,32.48a386,386,0,0,1-41.09,28.21l-3.5,2.07-1.32-3.78c-10-28.45-14.56-58.21-16.16-87.89a535.26,535.26,0,0,1,2.57-88.91"/><path class="cls-4" d="M1255.15,305.19a247.13,247.13,0,0,0-3.87,48.5c.66,16.09,2.82,32.15,8.91,46.75l-3.62-2c9.74-2.12,19.3-5.94,28.67-10.1A292.51,292.51,0,0,0,1312.67,374c18.09-10.13,35.51-21.6,53-33.1a390.72,390.72,0,0,1-50,38A281.33,281.33,0,0,1,1288,394.26c-9.53,4.58-19.44,8.72-30.2,10.66l-2.68.48-.95-2.44a122.47,122.47,0,0,1-7.64-49.28,171.59,171.59,0,0,1,8.64-48.49"/><path class="cls-4" d="M1304.38,1091s130.52-132.55,166.78-44.46-116,291.79-366.18,333.61-199.4,176.41-199.4,176.41-120.86-87.3-4.24-316.43,323.28-243.7,403-149.13"/><path class="cls-6" d="M1307.25,1097.83c-3.23-.68-9.85-.39-15.06.87a100.27,100.27,0,0,0-16.55,5.09,193.08,193.08,0,0,0-31.44,17c-20.19,13.27-38.63,29.51-56,46.72-8.94,8.4-17,17.65-25.61,26.5a272.47,272.47,0,0,1-27.56,25.74c-19.56,15.78-41.1,28.69-63.18,40-43.85,22.82-91.19,39.84-127.53,73.41a175.29,175.29,0,0,0-42.35,59.63c-9.93,22.58-16,46.82-19.42,71.31,2.88-24.58,8.37-49,17.83-72a178.38,178.38,0,0,1,41.58-61.46c36.26-35.06,83.86-53.41,126.66-77,21.59-11.72,42.35-24.85,60.94-40.58,18.67-15.46,33.71-34.92,51.35-52.88,17.33-17.92,35.78-35,56.62-49.39a205,205,0,0,1,33.25-18.91,112.11,112.11,0,0,1,18.68-6.2c6.77-1.41,12.7-2.69,21.65-1Z"/><path class="cls-6" d="M887.07,1303.61c9.31-5.07,19.45-8.32,29.6-11.34a279.67,279.67,0,0,1,31.15-6.39c21-3.07,42.3-3.55,63.49-2.86l4.76.16-1.76,4.47c-8.11,20.5-15.55,41.25-22.74,62.1s-14,41.86-20.14,63.11c3.32-21.93,8.91-43.44,15-64.74,6.34-21.25,13.64-42.21,21.52-62.94l3,4.64c-10.42-.51-20.86-.81-31.29-.58s-20.85.91-31.26,1.77c-20.73,2.1-41.54,5.43-61.36,12.6"/><path class="cls-6" d="M956.31,1194.24a776.86,776.86,0,0,1,95.86-6.18,464.8,464.8,0,0,1,48.16,2.36c16,1.75,32.2,3.8,47.67,9.94l2.27.91-.17,2.37c-.91,13.66-2.17,27.28-4.13,40.83s-4.52,27-8.37,40.19c-3.69,13.17-7.9,26.23-13.64,38.68s-12.47,24.48-21.46,34.72c8.18-10.87,13.78-23.36,18.63-35.91a284.52,284.52,0,0,0,11.67-38.71c3.11-13.14,5.17-26.49,7.15-39.81,1.76-13.38,2.81-26.84,3.52-40.33l2.11,3.27c-14.49-5.34-30.26-8-45.93-9.81s-31.66-2.68-47.58-3.15c-31.83-1-63.79-.59-95.76.63"/><path class="cls-6" d="M1083.29,1077.61c13.5-1.58,27.2.05,40.72,1.4a364.16,364.16,0,0,1,40.24,7.3c26.67,6,52.42,15.59,77.33,26.89l1,.47.51,1c7.12,14.63,13.36,29.74,17.56,45.48a239.55,239.55,0,0,1,8.67,47.94c2.3,32.37-1.31,65.4-13,95.48,4.78-15.37,7.1-31.33,8.22-47.26a240.66,240.66,0,0,0-.79-47.71c-1.83-15.78-4.45-31.52-9.26-46.67-4.23-15.33-10.79-29.83-17.34-44.27l1.54,1.51c-24.28-11.72-49.76-20.74-75.72-28.11-13-3.72-26.19-6.59-39.49-9.07s-26.74-5-40.25-4.42"/><path class="cls-6" d="M1288,1087.32a187.23,187.23,0,0,1,41.87,18.23,150.58,150.58,0,0,1,35.49,28.37,101.32,101.32,0,0,1,22,39.49c4.85,14.54,3.86,30,2.46,44.85.83-14.92,1.22-30.26-4.1-44.34a98.82,98.82,0,0,0-22.82-37.66,146.78,146.78,0,0,0-35.49-26.23,182.49,182.49,0,0,0-41-16Z"/><path class="cls-5" d="M1630.82,1566.53c29.08-24.23,58.57-48.15,89.93-69.58,15.65-10.74,31.57-21.15,48.3-30.44,16.78-9.48,34.7-16.37,52.62-22.79a442.22,442.22,0,0,1,55.19-15.22c18.63-4,37.19-7.14,55.12-12.11a342.41,342.41,0,0,0,52.41-19.2c17.46-8.18,36-13.89,54.39-18.7,74-18.39,150.08-26.14,226-25.06,37.93.77,75.94,3.6,113.23,10.88s74,18.43,107.13,36.9c-33.79-17.22-70.72-26.8-107.84-32.75a725,725,0,0,0-112.57-8,1017.65,1017.65,0,0,0-112.67,7.15c-37.35,4.39-74.56,10.75-110.83,20.29-18.11,4.9-35.87,10.48-52.64,18.5a306.1,306.1,0,0,1-54,19.69c-18.58,5-37.39,8-55.76,11.76a431.26,431.26,0,0,0-54.23,14.41c-17.7,6.2-35.25,12.87-51.81,21.32s-32.8,18.31-48.68,28.46c-31.61,20.57-63,41.81-93.26,64.53"/><path class="cls-5" d="M1877,1356.88a437.87,437.87,0,0,0-35.57,25.77,418.26,418.26,0,0,0-33.1,28.63c-20.67,20.22-40.42,42.79-49.91,69.93l-1.56-3.68c13.49,6.19,27,12.28,40.84,17.69s27.87,10.14,42,14.42a273.82,273.82,0,0,0,43.36,9.32c14.56,1.77,29.8,2.94,44-1.69-14,5.59-29.49,5.44-44.34,4.6a272.59,272.59,0,0,1-44.28-7.78c-14.56-3.62-28.73-8.56-42.77-13.78s-27.75-11.24-41.42-17.36l-2.47-1.12.92-2.57c5.14-14.25,13-27.19,22.11-38.91a240.07,240.07,0,0,1,30.33-32.41,391.5,391.5,0,0,1,71.77-51.06"/><path class="cls-5" d="M1981.88,1335.46c-19.79,13.21-37.67,28.92-54.46,45.57-16.54,16.92-32.16,34.74-45.89,54l-1.06-4.34c12.91,6.16,25.92,12.14,39.34,17.1a364.26,364.26,0,0,0,41.1,12.22c27.81,6.4,56.71,9.82,85.37,6.37-28.36,6.08-58,3.79-86.36-1.69-28.5-5.8-56-15.82-82.06-28.76l-3.13-1.56,2.08-2.79c14.33-19.19,30-37.49,47.56-53.72s36.49-31.15,57.51-42.41"/><path class="cls-5" d="M2183,1279.58a621.44,621.44,0,0,0-65.65,44.54c-20.52,16.47-40.42,34.22-55.06,55.85l-1.27-4.34q36.09,15.42,73,28.85c24.55,9.14,49.34,17.69,74.25,26-25.62-5.86-50.83-13.36-75.81-21.54q-37.39-12.51-73.78-28l-3.34-1.42,2.06-2.92c15.66-22.19,35.76-40.36,57.24-56.09a438.44,438.44,0,0,1,68.32-41"/><path class="cls-5" d="M2341.22,1301.88A585.84,585.84,0,0,0,2277,1323a260.42,260.42,0,0,0-30.21,14.48c-9.51,5.54-18.9,12.1-24.55,20.92l-.47-3.62c8.73,7.44,19.45,13.24,30.15,18.59s21.88,10.1,33.06,14.67c22.31,9.35,45,17.79,67.77,26.27a686.88,686.88,0,0,1-69.59-21.63q-17.05-6.51-33.69-14.23c-11-5.28-22-10.87-31.61-19.48l-1.79-1.64,1.33-2c6.88-10.27,16.89-16.77,26.8-22.43a201.28,201.28,0,0,1,31.31-13.85,394,394,0,0,1,65.7-17.19"/><path class="cls-8" d="M1345.46,1650.65s31.2-105.64,130.64-54.77,118.93,291.45-50.71,467.49c-7.79-90-21.44-135-97.48-221s-52.65-176,17.55-191.69"/><path class="cls-4" d="M1347.1,1644.9a146.4,146.4,0,0,1,51.18,24.19c15.15,11.35,27.94,26.42,35.43,44.05s9.78,37,8.22,55.72a186.36,186.36,0,0,0,2.33,54.22c6.46,35.79,23.46,69.94,25,107.48.91,18.62-2.86,37.23-9.79,54.34-7.1,17.09-16.85,32.88-27.92,47.55,10.74-14.93,20.08-30.92,26.73-48,6.48-17.13,9.74-35.51,8.44-53.73-2.26-36.75-19.89-70.13-27.41-106.61a191.15,191.15,0,0,1-3.69-55.69c1.2-17.94-1.26-36.12-8.53-52.32-14.48-32.73-47.87-54.1-81.75-62.23Z"/><path class="cls-4" d="M1507.25,1946.6c-5.35-12-13.13-22.65-21.5-32.59a234.36,234.36,0,0,0-27.88-27.23l3.42-.8c-12.91,28.46-27.16,56.49-45.27,82q22-41.37,41.25-83.84l1.23-2.69,2.19,1.91c10,8.64,19.59,18,27.6,28.54s15.17,22,19,34.67"/><path class="cls-4" d="M1528.84,1860.11c-13.85-14.29-28.17-28.1-43.09-41.11-7.52-6.43-15.09-12.8-23.13-18.47s-16.39-11-25.4-14.1l2.44-.68c-6.16,7.26-12.14,14.66-17.81,22.32s-11,15.56-15.95,23.65a216.19,216.19,0,0,0-13.56,25.11c-4,8.62-7.59,17.57-9.24,27,.93-9.57,3.87-18.86,7.23-27.88a210.64,210.64,0,0,1,12.59-26c9.49-16.79,21-32.34,33.29-47.13l1-1.2,1.47.51c9.83,3.43,18.26,9.15,26.38,15a239,239,0,0,1,23.06,19.23,428.48,428.48,0,0,1,40.74,43.74"/><path class="cls-4" d="M1519.78,1754.57c-5.89-6.11-13.33-10.52-20.5-15s-14.68-8.48-22.37-12a267.1,267.1,0,0,0-47.55-17.16l1.38-.11c-20.41,9.4-39.82,21.29-56.42,36.61a198.36,198.36,0,0,0-23.42,24.45,170.74,170.74,0,0,0-19.22,28.06c9.29-20.88,23.5-39.46,40-55.35a198.29,198.29,0,0,1,27-21.31c9.48-6.56,19.81-11.71,30.29-16.43l.67-.31.71.2a227.24,227.24,0,0,1,47.9,18.55,196.54,196.54,0,0,1,22,13.23c6.88,5,14,10,19.48,16.57"/><path class="cls-4" d="M1515.69,1657.14c-17.92-16.21-42.45-23.14-66-23.07-23.8-.13-47,7.23-68.27,17.66a117.91,117.91,0,0,0-29.4,19.58,121.8,121.8,0,0,0-23.36,26.56c-13,19.69-21.39,42.92-22.74,67-.8-24.12,6.41-48.53,19.42-69.14a126.27,126.27,0,0,1,23.72-27.76c8.94-8.43,19.58-14.72,30.51-20,21.74-10.58,45.73-17.8,70.16-16.85,24.14.35,48.8,9,65.91,26"/><path class="cls-4" d="M3034.23,1325.31s140.94,529.38,38.91,878.8c42.06,9.1,65.24,0,65.24,0s60.33-670.6-104.15-878.8"/><path class="cls-4" d="M3293.9,1598.77s-129.51,395.69-126.57,593.53c-26.49,73.83-68.15,0-68.15,0s39.21-398.64,194.72-593.53"/><path class="cls-5" d="M3293.9,1746.42s-79.2,329.54-66.78,491c-16.57,61.6-52.37,3.32-52.37,3.32s9.64-327.57,119.15-494.33"/><path class="cls-4" d="M3316.83,2173.11s139-163.89,236.09-193.41c23.54-25.1,0-23.62,0-23.62s-214.86,110.72-272.26,224.41c11.77,29.53,36.18-7.38,36.18-7.38"/><path class="cls-5" d="M3328.28,1987.4s-79.84,84.75-87.62,246c-35.07,7.61-40.56-16.9-40.56-16.9s71.72-269,183.57-278.74c-35.33,24.19-55.39,49.62-55.39,49.62"/><path class="cls-4" d="M3115.26,2128.32s-11.71-160.61-148.12-274.87c-67.25-56.34-52-99.34-107.41-114.49s-135.95-62.3-157.77-84.19-349.45-98.68-433.37-68.38c94,23.57,184.56,159.25,231.55,162.61s107.52,57.72,174.65,104.87,119.49,18.1,163.12,40,203.09,107.83,277.35,234.46"/><path class="cls-6" d="M3032.11,1999.81c-20.42-26.47-42.09-51.93-64.19-76.85a482.85,482.85,0,0,0-34.92-35.44,374.19,374.19,0,0,0-39.46-29.84,402.13,402.13,0,0,0-43-24.57c-14.85-7.44-30.14-14.63-44.53-23.67-14.46-8.74-27.89-19.76-40.42-30.32-12.78-10-27.13-18.39-41.68-26.24-58.75-30.89-121.08-55.2-182.82-80.31l-186.12-73.8c62.75,22.73,125.82,44.58,188.26,68.26s124.86,47.64,184.57,78.54c14.83,7.89,29.49,16.29,43.11,26.79,13.12,10.82,25.66,20.93,39.67,29.73,13.82,8.87,28.74,16.05,43.64,23.68a408.88,408.88,0,0,1,43.66,25.43c13.87,9.59,27.56,19.33,39.84,31.2a488.13,488.13,0,0,1,34.21,37.08c21.73,25.55,41.18,52.86,60.22,80.33"/><path class="cls-7" d="M2875.89,1769.14a338.77,338.77,0,0,1,47.84,58.91,206.47,206.47,0,0,1,17.73,33.86c4.86,11.82,8.43,24.38,9.44,37.38l.18,2.35-2.32.36c-12.74,1.92-25.49,3.67-38.32,4.85a346.25,346.25,0,0,1-38.64,1.57,234.75,234.75,0,0,1-38.52-3.74c-12.52-2.74-25.42-6.2-35.73-14,10.76,7.12,23.67,9.66,36.16,11.55a236.72,236.72,0,0,0,38.1,2.27c12.74-.29,25.48-1,38.18-2.27s25.31-3.24,37.92-5.27l-2.13,2.69c-1.66-24.68-12.87-48-25.39-69.51a357.66,357.66,0,0,0-20.9-31.38c-7.4-10.21-15.2-20.14-23.6-29.58"/><path class="cls-6" d="M2793.82,1727.2c14.86,14.2,27.1,31,38,48.44s19.65,36.31,27.15,55.54l1.09,2.78-3,.57a287.63,287.63,0,0,1-74.65,5c-24.83-2-49.9-6.93-72-18.52,23,9.48,47.73,13.3,72.27,14.41a315.36,315.36,0,0,0,36.89-.66c12.28-1,24.43-3,36.56-5.13l-1.88,3.37a392.76,392.76,0,0,0-25.69-55.39c-10.12-17.68-21.35-34.84-34.74-50.36"/><path class="cls-6" d="M2639.79,1634.48a378.08,378.08,0,0,1,47.28,49.77c14.22,18,26.73,37.72,34.65,59.73l1,2.9-3.1.41q-33.68,4.47-67.6,6.17c-22.59,1-45.22,1.45-67.82.4,22.57-1.21,45.1-2.58,67.56-4.49q33.71-2.58,67.19-7.1l-2,3.31c-7.2-21.31-19.63-40.62-32.89-59a531.67,531.67,0,0,0-44.26-52.09"/><path class="cls-6" d="M2503.43,1616.5a340.09,340.09,0,0,1,50.56,29.41,172,172,0,0,1,22.79,18.7c6.93,7,13.75,14.68,17.11,24.79l.64,2-1.86.94c-9.91,5-20.33,7-30.69,8.88s-20.78,3.06-31.2,4a593.7,593.7,0,0,1-62.67,1.9c20.8-1.79,41.58-3.57,62.22-6.17,10.33-1.22,20.62-2.64,30.79-4.54s20.32-4.33,29.26-8.48l-1.2,2.89c-2.67-8.62-9-16.23-15.58-23a225.68,225.68,0,0,0-21.76-19,507,507,0,0,0-48.41-32.33"/><path class="cls-8" d="M3074.51,1369.65s-57.07-218.89-204.76-252.56-194.69-90.93-288.68-121.22-184.62,43.77-184.62,43.77,112.44,1.69,220.7,80,310.5,222.26,457.36,250"/><path class="cls-4" d="M3074.51,1369.65s-69.54-142.36-217.23-176-181.72-116.73-275.71-147-185.12-6.93-185.12-6.93,112.44,1.69,220.7,80,310.5,222.26,457.36,250"/><path class="cls-4" d="M3507.52,1996s47-96,130.92-151.53,146-42.94,194.69-69.45,171.19-53.46,228.26-34.94,153.88,20.19,192.75,133c-38.35-23.58-100.45,6.73-167.58,30.3s-146.28-23.57-205.72,0-113.17,80.82-177,84.2-196.37,8.41-196.37,8.41"/><path class="cls-8" d="M3312,1996s-7.56-128.81,100.7-191.94,211.47-108.61,254.26-181.85,183.78-108.6,319.73-48c-100.7-5-229.09,90.91-365,212.15S3312,1996,3312,1996"/><path class="cls-4" d="M3312,1996s-7.56-128.81,100.7-191.94,214.17-47.4,257-120.64,181.07-169.81,317-109.19c-100.7-5-229.09,90.91-365,212.15S3312,1996,3312,1996"/><path class="cls-8" d="M3219.47,1996s17.23-299.84,144.58-358.47,118.61-178.5,255.18-242.8,244.43-169.54,418-151.14c-155.3,51.77-198.2,124.43-263.16,211.31S3633,1583,3605.06,1616.88,3491.7,1764.19,3438.86,1782s-189.31,140-219.39,214"/><path class="cls-4" d="M3219.47,1996s55.5-258.88,182.84-317.51,110.41-176.36,247-240.66,214.37-212.64,388-194.24c-155.3,51.77-198.2,124.43-263.16,211.31S3633,1583,3605.06,1616.88,3491.7,1764.19,3438.86,1782s-189.31,140-219.39,214"/><path class="cls-8" d="M3034.23,2009.34S2910.86,1848,2765.69,1865s-114.12,109.74-255.11,71.56-362.53,99.87-382.66,207.63c124.2-97.66,211.46-114.49,399.45-87.56s396.09-67.61,506.86-47.27"/><path class="cls-4" d="M3034.23,2009.34s-117.63-88.54-262.79-71.58-116.58,77.17-257.56,39-365.83,59.67-386,167.43c124.2-97.66,211.46-114.49,399.45-87.56s396.09-67.61,506.86-47.27"/><path class="cls-5" d="M3073.14,2204.11s30.91-153.55-131-240.66c72.11-3,155.08,87.11,179.09,218.52,9.29,60.53-48.11,22.14-48.11,22.14"/><path class="cls-8" d="M3034.23,1645.78S2920.1,1501,2963.74,1285.46s57.05-208.78,114.13-306.44,97.34-218.88,214.83-229,100.7-80.82,214.82-26.94c-60.42-3.36-177.9,53-177.9,138.91s-25.17,146.48-57.9,184.36-20.15,126.28-55.39,186.9-93.15,229.82-130.91,279.08-27.69,150.28-25.18,157.85-26-24.42-26-24.42"/><path class="cls-8" d="M3296.05,1585.11s-63.78-262.6-13.42-424.24,127.55-178.47,204.76-266,141-50.52,141-50.52-43.63,60.62-50.35,229-78.29,291.8-184.62,380.54-97.35,131.26-97.35,131.26"/><path class="cls-8" d="M3017.45,1709.94s-80.57-276.3-241.68-340.29-171.19-37-285.33-43.77-251.76,47.15-315.54,97.66c167.85-50.51,342.4,29.9,453.17,94.09s389.38,192.31,389.38,192.31"/><path class="cls-4" d="M3017.45,1709.94s-120.85-183-282-247-147.21-115.81-261.33-122.54-235.47,32.63-299.25,83.14c167.85-50.51,342.4,29.9,453.17,94.09s389.38,192.31,389.38,192.31"/><path class="cls-4" d="M3271.16,1594.46c24.73-63.64,46.6-129.65,58.76-196.72,1.56-8.39,2.66-16.8,3.7-25.2,1.24-8.47,2-17.59,3.82-26.29a210.08,210.08,0,0,1,15.87-51.3c15.19-32.79,37.59-59.25,48.34-91.3,5.89-15.63,8.81-32.67,13.65-49.6,4.48-16.86,9.75-33.47,15.27-50a880.08,880.08,0,0,1,38.9-96.73c15-31.33,32-61.83,52.88-89.65,20.81-27.51,45.87-53.31,77.67-67.48-31.38,15.09-55.42,41.35-75.3,69.22-19.87,28.18-35.91,58.9-49.9,90.39a873,873,0,0,0-35.86,97c-5,16.5-9.73,33.08-13.69,49.82-2.18,8.35-3.73,16.71-5.66,25.17l-3,13-3.82,12.78c-10.62,34.45-33.11,62.87-46,93.39a194.73,194.73,0,0,0-13.39,48.1c-1.46,8.32-1.92,16.52-2.93,25.21-.84,8.82-1.74,17.62-3.11,26.31-5,34.88-13.18,68.93-22.37,102.64-9.37,33.71-19.84,66.82-31.89,99.9Z"/><path class="cls-4" d="M3282.13,1241.46q12.32,42.4,25.66,84.41c4.63,13.94,9.1,27.91,14.12,41.66s10.44,27.48,17.66,39.71l-4.22-.83q18-12.95,36.35-25.43c12.29-8.21,24.54-16.51,37.24-24.11,25.21-15.42,51.08-30,78.25-41.59-13.19,6.64-25.89,14.17-38.45,21.87s-25.08,15.46-37.37,23.57c-24.61,16.2-48.9,32.89-72.57,50.46l-2.62,2-1.59-2.77c-7.58-13.22-12.69-27.1-17.7-41-4.84-14-9.43-28-13.41-42.18q-12.21-42.47-21.35-85.72"/><path class="cls-4" d="M3341,1106.62c2.29,29.35,6.11,58.54,10.79,87.51,5,28.93,10.77,57.73,19.52,85.64l-4-1.74c29.85-14.72,59.19-30.59,87.3-48.44,14.13-8.81,28-18.07,41.2-28.19s26.61-20.46,35.53-34.74c-8.08,14.82-21.06,26.17-33.65,37.1-13,10.67-26.61,20.47-40.51,29.82s-28.34,17.92-42.91,26.2S3385,1276,3369.8,1283.22l-3,1.45-1-3.19a565.46,565.46,0,0,1-18.28-86.7,715.1,715.1,0,0,1-6.54-88.16"/><path class="cls-4" d="M3409.67,1001.3a652.57,652.57,0,0,0,.5,76.23c2,25.22,5.14,50.55,13.44,74.24l-4.13-1.56c12.09-7.17,24.11-14.51,35.46-22.89s22.43-17.15,33.12-26.41,21.19-18.75,31.3-28.7,20.19-19.93,29.63-30.55a491.51,491.51,0,0,1-57.82,62.79c-10.43,9.74-21.64,18.61-33,27.27a336.22,336.22,0,0,1-35.88,23.54l-3.05,1.71-1.07-3.28c-8.08-24.67-11.47-50.35-12.33-75.92a460.51,460.51,0,0,1,3.83-76.47"/><path class="cls-4" d="M3472.46,924.52a212.27,212.27,0,0,0-4.2,41.67c.28,13.86,1.85,27.73,6.83,40.41l-3.09-1.76c8.42-1.65,16.72-4.76,24.87-8.17a246.29,246.29,0,0,0,23.84-11.9c15.76-8.38,30.95-17.93,46.19-27.52a336.11,336.11,0,0,1-43.74,31.81,242.8,242.8,0,0,1-24.06,12.71c-8.28,3.77-16.87,7.16-26.17,8.64l-2.33.35-.75-2.11a105.15,105.15,0,0,1-5.7-42.55,148.11,148.11,0,0,1,8.31-41.58"/><path class="cls-4" d="M3052.36,1679a50.64,50.64,0,0,1-6.66-8.26c-1.81-2.59-3.15-5.19-4.71-7.79a131.58,131.58,0,0,1-7-15.9,195.78,195.78,0,0,1-8.88-32.43,346.91,346.91,0,0,1-5.26-65.24c.17-43.33,6.24-85.93,14.52-127.77,8.57-41.7,17.76-83.53,34-123.66,8-20,17.86-39.05,26.7-57.93a319.68,319.68,0,0,0,21.19-58.48,894.57,894.57,0,0,1,34.95-122.37,956.11,956.11,0,0,1,50.72-116.69c19.65-37.57,42.1-73.84,69.1-106.57,27-32.5,59.09-61.81,97.53-79.67-38,18.72-69.25,48.59-95.32,81.46C3247.15,870.78,3225.68,907.3,3207,945A946.24,946.24,0,0,0,3159.27,1062a860.18,860.18,0,0,0-31.84,122.25,332.11,332.11,0,0,1-20.23,61.23c-8.52,19.66-17.58,38.47-24.75,58-14.4,38.84-22.53,80.29-30.2,121.5-7.26,41.21-12.25,82.94-11.55,124.29a326.45,326.45,0,0,0,6.17,61,173,173,0,0,0,8.41,28.51,108.49,108.49,0,0,0,6,13c1.22,1.89,2.34,4,3.6,5.71a38.59,38.59,0,0,0,3.23,4.07Z"/><path class="cls-4" d="M2994.39,1207q12.81,48.23,26.79,96.06c4.89,15.87,9.53,31.8,14.9,47.47s11,31.43,19.21,45.14l-4.24-.74c21.49-16.15,42.68-32.67,63.93-49.14l31.73-24.88c10.61-8.26,21.19-16.57,31.41-25.32-19.17,18.93-39.6,36.54-60.31,53.75s-41.95,33.75-63.2,50.28l-2.63,2-1.61-2.77c-8.72-15-13.94-30.83-19.37-46.65-5.14-15.86-9.92-31.83-14.15-48Q3004,1256,2994.39,1207"/><path class="cls-4" d="M3050.42,1095.09c2.9,29.3,7.33,58.4,12.62,87.27,5.57,28.81,12,57.47,21.31,85.19l-4-1.65a926.79,926.79,0,0,0,86.27-50.27c13.94-9.11,27.61-18.65,40.59-29.06s26.18-21,34.8-35.47c-7.76,15-20.51,26.62-32.86,37.8-12.74,10.94-26.18,21-39.88,30.68s-27.95,18.5-42.35,27.09-29,16.87-44,24.37l-3,1.51-1-3.17a564.24,564.24,0,0,1-20.1-86.29,710.23,710.23,0,0,1-8.38-88"/><path class="cls-4" d="M3116.88,988.35a651.82,651.82,0,0,0,2.1,76.21c2.54,25.17,6.19,50.44,15,73.94l-4.14-1.48c11.93-7.42,23.79-15,35-23.63s22.05-17.62,32.54-27.1,20.82-19.19,30.69-29.35,19.78-20.35,29-31.18a490.92,490.92,0,0,1-56.49,64,427.46,427.46,0,0,1-32.42,28,334.49,334.49,0,0,1-35.37,24.29l-3,1.78-1.14-3.26c-8.59-24.48-12.53-50.1-13.9-75.65a459,459,0,0,1,2.21-76.53"/><path class="cls-4" d="M3178,910.27a212.92,212.92,0,0,0-3.33,41.75c.57,13.84,2.43,27.68,7.67,40.24l-3.11-1.69c8.38-1.83,16.61-5.11,24.68-8.69a250.39,250.39,0,0,0,23.6-12.39c15.58-8.72,30.57-18.59,45.59-28.49a336.66,336.66,0,0,1-43.06,32.72,243.29,243.29,0,0,1-23.78,13.22c-8.2,3.94-16.73,7.51-26,9.17l-2.31.42-.81-2.11A105.22,105.22,0,0,1,3170.6,952a148.24,148.24,0,0,1,7.44-41.74"/><path class="cls-4" d="M3220.42,1586.65s112.34-114.09,143.56-38.26-99.87,251.16-315.2,287.16-171.64,151.85-171.64,151.85-104-75.15-3.65-272.38,278.28-209.77,346.93-128.37"/><path class="cls-6" d="M3222.89,1592.56c-2.78-.59-8.48-.34-13,.74a87.13,87.13,0,0,0-14.25,4.39,166.22,166.22,0,0,0-27.07,14.62c-17.37,11.42-33.25,25.41-48.23,40.22-7.69,7.23-14.6,15.19-22,22.81a234.27,234.27,0,0,1-23.73,22.15c-16.83,13.59-35.38,24.7-54.38,34.45-37.75,19.64-78.5,34.29-109.78,63.19a150.81,150.81,0,0,0-36.45,51.32c-8.55,19.44-13.74,40.3-16.72,61.38,2.48-21.15,7.2-42.16,15.35-62a153.61,153.61,0,0,1,35.79-52.91c31.22-30.17,72.19-46,109-66.27,18.58-10.09,36.45-21.39,52.45-34.93,16.07-13.31,29-30.06,44.2-45.52,14.92-15.42,30.8-30.12,48.74-42.51a175.88,175.88,0,0,1,28.63-16.27,95.85,95.85,0,0,1,16.07-5.34c5.83-1.22,10.94-2.32,18.64-.89Z"/><path class="cls-6" d="M2861.21,1769.69c8-4.36,16.74-7.16,25.48-9.76a240,240,0,0,1,26.81-5.5c18.08-2.65,36.42-3.06,54.65-2.46l4.1.13-1.52,3.85c-7,17.65-13.39,35.5-19.57,53.46s-12,36-17.34,54.32c2.86-18.88,7.68-37.4,12.95-55.73,5.45-18.29,11.74-36.33,18.52-54.18l2.58,4c-9-.44-17.95-.7-26.94-.5s-17.94.78-26.9,1.52c-17.85,1.81-35.76,4.68-52.82,10.85"/><path class="cls-6" d="M2920.81,1675.55a668.71,668.71,0,0,1,82.51-5.33,402.25,402.25,0,0,1,41.46,2c13.76,1.51,27.71,3.27,41,8.57l2,.78-.14,2c-.79,11.75-1.87,23.48-3.55,35.14a273.36,273.36,0,0,1-7.21,34.59,222.66,222.66,0,0,1-11.74,33.3c-5,10.61-10.74,21.07-18.47,29.88,7-9.35,11.86-20.1,16-30.91a246.19,246.19,0,0,0,10-33.32c2.67-11.3,4.45-22.79,6.16-34.26,1.5-11.52,2.41-23.11,3-34.72l1.81,2.82c-12.46-4.6-26-6.87-39.53-8.45s-27.25-2.3-41-2.71c-27.4-.88-54.91-.5-82.43.55"/><path class="cls-6" d="M3030.11,1575.15c11.62-1.36,23.41,0,35,1.2a316.42,316.42,0,0,1,34.64,6.29c22.95,5.15,45.12,13.42,66.57,23.15l.89.4.44.9a218.09,218.09,0,0,1,15.11,39.14,206.81,206.81,0,0,1,7.47,41.27c2,27.86-1.13,56.3-11.18,82.19,4.11-13.23,6.11-27,7.08-40.68a207.18,207.18,0,0,0-.68-41.07c-1.58-13.58-3.83-27.13-8-40.17-3.64-13.2-9.29-25.68-14.93-38.11l1.33,1.3c-20.9-10.08-42.84-17.86-65.18-24.2-11.18-3.2-22.55-5.67-34-7.81s-23-4.28-34.65-3.8"/><path class="cls-6" d="M3206.28,1583.51a161.09,161.09,0,0,1,36,15.69,129.89,129.89,0,0,1,30.55,24.42,87.38,87.38,0,0,1,18.9,34c4.18,12.51,3.32,25.83,2.12,38.6.72-12.84,1.05-26-3.53-38.16a85.22,85.22,0,0,0-19.64-32.43,126.46,126.46,0,0,0-30.56-22.57,156.77,156.77,0,0,0-35.26-13.81Z"/><path class="cls-5" d="M3501.41,1996c25-20.86,50.42-41.45,77.42-59.9,13.46-9.25,27.17-18.2,41.57-26.2,14.45-8.16,29.87-14.09,45.29-19.62a382,382,0,0,1,47.51-13.1c16-3.42,32-6.15,47.45-10.42a295.36,295.36,0,0,0,45.1-16.53c15-7,31-12,46.83-16.1,63.68-15.83,129.18-22.5,194.52-21.57,32.65.67,65.37,3.1,97.47,9.37s63.69,15.86,92.21,31.76c-29.08-14.82-60.87-23.07-92.82-28.19a623.53,623.53,0,0,0-96.9-6.92,875.66,875.66,0,0,0-97,6.15c-32.16,3.78-64.18,9.26-95.41,17.47-15.58,4.22-30.87,9-45.3,15.92a263.67,263.67,0,0,1-46.51,16.95c-16,4.26-32.18,6.87-48,10.12a371.76,371.76,0,0,0-46.68,12.41c-15.24,5.33-30.34,11.07-44.6,18.35s-28.23,15.76-41.9,24.5c-27.21,17.7-54.21,36-80.28,55.55"/><path class="cls-5" d="M3713.34,1815.54a377.79,377.79,0,0,0-30.61,22.18,358,358,0,0,0-28.49,24.65c-17.79,17.4-34.8,36.83-43,60.19l-1.34-3.16c11.61,5.32,23.27,10.57,35.16,15.22s24,8.73,36.18,12.42a237.41,237.41,0,0,0,37.32,8c12.54,1.52,25.66,2.52,37.93-1.46-12,4.81-25.39,4.68-38.18,4a233.76,233.76,0,0,1-38.11-6.7,343,343,0,0,1-36.81-11.86c-12.06-4.57-23.89-9.67-35.65-14.94l-2.14-1,.79-2.2c4.43-12.28,11.21-23.41,19-33.5a206.61,206.61,0,0,1,26.1-27.9,338.19,338.19,0,0,1,61.78-44"/><path class="cls-5" d="M3803.6,1797.1c-17,11.38-32.43,24.9-46.88,39.23a394.37,394.37,0,0,0-39.51,46.49l-.9-3.74c11.11,5.31,22.31,10.46,33.86,14.72a314.31,314.31,0,0,0,35.38,10.53c23.94,5.5,48.81,8.44,73.48,5.48-24.41,5.23-49.89,3.26-74.34-1.46a288.09,288.09,0,0,1-70.63-24.75l-2.7-1.35,1.79-2.4c12.34-16.52,25.81-32.27,40.94-46.24s31.41-26.81,49.51-36.51"/><path class="cls-5" d="M3976.71,1749a534.11,534.11,0,0,0-56.51,38.34c-17.67,14.18-34.8,29.46-47.39,48.08l-1.1-3.74q31.07,13.27,62.87,24.83c21.14,7.87,42.47,15.23,63.91,22.42-22-5-43.75-11.5-65.25-18.54s-42.67-15.17-63.51-24.06l-2.87-1.22,1.77-2.52c13.48-19.09,30.78-34.73,49.27-48.28a378.86,378.86,0,0,1,58.81-35.31"/><path class="cls-5" d="M4112.91,1768.2a502.45,502.45,0,0,0-55.27,18.19,224.34,224.34,0,0,0-26,12.46c-8.18,4.77-16.27,10.42-21.13,18l-.4-3.12c7.51,6.41,16.74,11.4,26,16s18.84,8.69,28.46,12.62c19.2,8.05,38.76,15.31,58.34,22.61a590.11,590.11,0,0,1-59.91-18.61c-9.78-3.74-19.45-7.8-29-12.25s-19-9.36-27.21-16.77l-1.54-1.41,1.14-1.71c5.92-8.85,14.54-14.44,23.08-19.31a173.18,173.18,0,0,1,27-11.92,337.83,337.83,0,0,1,56.55-14.8"/><path class="cls-8" d="M3255.78,2068.41s26.85-90.93,112.45-47.14,102.37,250.87-43.64,402.4c-6.71-77.44-18.46-116.17-83.91-190.25s-45.33-151.53,15.1-165"/><path class="cls-4" d="M3257.19,2063.46a126.11,126.11,0,0,1,44.06,20.83c13,9.76,24.05,22.73,30.49,37.91s8.42,31.87,7.08,48a160.19,160.19,0,0,0,2,46.67c5.56,30.8,20.19,60.2,21.47,92.52a110.84,110.84,0,0,1-8.43,46.77,188.6,188.6,0,0,1-24,40.93,187.73,187.73,0,0,0,23-41.33c5.58-14.76,8.38-30.57,7.26-46.26-1.94-31.63-17.11-60.37-23.59-91.76a164.63,164.63,0,0,1-3.18-47.94c1-15.44-1.08-31.09-7.33-45-12.47-28.17-41.21-46.56-70.38-53.57Z"/><path class="cls-4" d="M3395.05,2323.16c-4.61-10.36-11.31-19.5-18.51-28a202.14,202.14,0,0,0-24-23.45l2.95-.68c-11.12,24.5-23.38,48.63-39,70.61q18.93-35.61,35.51-72.17l1.06-2.31,1.88,1.64a162.4,162.4,0,0,1,23.76,24.57c6.88,9,13.06,18.92,16.32,29.84"/><path class="cls-4" d="M3413.63,2248.71c-11.92-12.3-24.25-24.19-37.09-35.38-6.48-5.54-13-11-19.91-15.9s-14.11-9.49-21.86-12.14l2.09-.58c-5.3,6.25-10.44,12.61-15.33,19.2s-9.44,13.4-13.73,20.37a184.29,184.29,0,0,0-11.66,21.61c-3.44,7.42-6.54,15.12-8,23.26.8-8.25,3.33-16.24,6.23-24a180.44,180.44,0,0,1,10.83-22.4c8.17-14.45,18.08-27.84,28.65-40.57l.85-1,1.26.44c8.47,2.95,15.72,7.88,22.71,12.92a204.78,204.78,0,0,1,19.85,16.55,369.14,369.14,0,0,1,35.07,37.65"/><path class="cls-4" d="M3405.83,2157.86c-5.07-5.26-11.48-9.05-17.65-12.87a217.31,217.31,0,0,0-19.25-10.36,229.46,229.46,0,0,0-40.93-14.78l1.19-.09c-17.57,8.09-34.28,18.33-48.57,31.51a171.52,171.52,0,0,0-20.16,21.05,146.57,146.57,0,0,0-16.54,24.15c8-18,20.23-34,34.46-47.65a171.58,171.58,0,0,1,23.27-18.34,164,164,0,0,1,26.06-14.14l.58-.27.61.18a194.73,194.73,0,0,1,41.23,16,167.25,167.25,0,0,1,18.94,11.38c5.92,4.33,12.06,8.6,16.76,14.26"/><path class="cls-4" d="M3402.31,2074c-15.42-13.95-36.54-19.92-56.77-19.86-20.49-.11-40.49,6.23-58.76,15.2a101.35,101.35,0,0,0-25.31,16.86,105,105,0,0,0-20.11,22.86,117.08,117.08,0,0,0-19.58,57.65c-.68-20.77,5.53-41.78,16.72-59.52a109.11,109.11,0,0,1,20.42-23.9c7.7-7.25,16.86-12.67,26.27-17.17,18.71-9.11,39.36-15.32,60.38-14.5,20.79.3,42,7.73,56.74,22.38"/><path class="cls-9" d="M4500,2240.84,0,1084.56V2500H4500Z"/><path class="cls-10" d="M0,2019.18c311.92-348.16,772.64-720.11,945.89-677,36.39,9.07,62.48,49.78,90.53,71.84,57.42,45.13,112.82,90.15,109.57,170.73-6.41,159-459.42,678.68-568.13,803.26-15.26,17.48-55,61.35-93.26,112H0ZM2603.75,2500c81.15-104.22,153.83-206.85,192.19-272.2,13.3-22.65,42.23-53.31,46.44-79.58,6.65-41.42-17.35-271.56,54.31-247.33,32.33,10.92,48.15,39.22,77.24,54.06,229.13,117,236.88,320,247.47,545.05Z"/><rect class="cls-1" width="4500" height="2499.98"/><g class="cls-11"><path class="cls-12" d="M2707.1,2014.15c-30.67-43-68.17-77.11-95.38-122.91-13.35-22.46-39.92-42.44-44.1-69.63-4.35-28,19.81-143.78,66.24-138.35,18.93,2.21,38.15,20.34,51.37,32,57.69,50.89,135.28,123.64,115.68,212.34"/><path class="cls-12" d="M2692.12,2032.28c-38-14.31-56.6-59.84-97.1-72.35-26-8-51.61-17.54-77.35-26.68-60.45-21.52-94.93,16.59-76.08,77.78,7.51,24.34,38.87,33.7,54.82,50.13,21.58,22.24,80.05,101.69,109.33,107,15.2,2.77,28.2-2.8,43-3.5,16.68-.81,38.45-15.81,44.94-31.71"/><path class="cls-13" d="M-22.31,1548.76c.72-8.2,97.29-60.67,109.53-68.53,104-66.67,210.52-126.91,315.75-190.81,87.69-53.26,195.17-119,260.63-199.62,18.32-22.56,30.27-56.23,45.13-81.43,48.37-82.06,104.21-172.32,176.81-235.49,87.58-76.2,190.78-114.41,293.07-165.73,47.94-24,88.06-66.67,136.11-91.95,28.62-15.09,48.53-43.81,78-58.07,56.2-27.16,270.54-101.9,317-25.31,29.61,48.76-5.89,248-22.5,292.27-26,69.2-61,140.12-102.83,201.12-77.38,112.74-178.27,196.71-275.32,291.38-70.12,68.39-139.2,150.2-225.5,199.1-53.57,30.36-118.37,56.88-175.78,78.5-31.87,12-67.09,8.31-97.82,24.37C757.34,1546.13,661,1652,621.21,1697.84c-150.51,173.44-304.11,320.59-475.55,473.7-51.2,45.75-94.27,101-140.42,152-8.31,9.17-76.41,85.63-78.2,67.21"/><path class="cls-12" d="M-57.57,2135c25.72-18.61,51.07-36.74,73.82-55.24,87.27-71,181.26-141.41,262.75-218.9,67.44-64.11,120.29-145.47,195-202.08,49.72-37.68,97.16-79.13,147.42-115.84,19.06-13.93,52.6-21,67.22-39,45.52-56.11,10.93-221.73,25.92-239.66,0,0,23,30.58,25.38,33.56,12.52,15.68,66.28,80.15,90.43,54.73,27.82-29.23,14.28-120.08,26.64-158,13.42-41.23,50-83.78,59.58-118.47.89-3.2.88-6.22-.87-8.93-12.92-20.07-53.13,5.78-70.93-3.69-3-1.61-.35-11.83.86-14.41,8.64-18.51,93.81-62.26,114.67-80.1,79.19-67.77,155.17-138.13,231.76-208.62,7.65-7,70.78-60.59,77-44.91l308.62-219.46c18.56,3.95,45.51,2.79,62.11,13.36,17.94,11.43,49,55,72.77,95.72-7.45,52.21-18.11,100-25.27,119.12-26,69.2-61,140.12-102.83,201.12-77.38,112.74-178.27,196.71-275.32,291.38-70.12,68.39-139.2,150.2-225.5,199.1-53.57,30.36-118.37,56.88-175.78,78.5-31.87,12-67.09,8.31-97.82,24.37C757.34,1546.13,661,1652,621.21,1697.84c-150.51,173.44-304.11,320.59-475.55,473.7-51.2,45.75-94.27,101-140.42,152-8.31,9.17-76.41,85.63-78.2,67.21Z"/><path class="cls-14" d="M1735.91,129.25,3032.28,1263.49l-835.7,1350.36-33.13,15L900.21,1479.6Z"/><polygon class="cls-15" points="3000.18 1278.79 1703.81 144.54 868.12 1494.89 2164.48 2629.14 3000.18 1278.79"/><path class="cls-16" d="M1712.75,142,3009.12,1276.21,2115,2636.38l-28.16-.48L818.63,1502.13Z"/><polygon class="cls-17" points="2982.16 1276.32 1685.79 142.08 791.68 1502.24 2088.04 2636.48 2982.16 1276.32"/><path class="cls-18" d="M1685.79,142.07,2982.16,1276.32,1960.4,2604.26,735.84,1386.47Z"/><path class="cls-17" d="M1685.79,142.07,2982.16,1276.32,1941.86,2557.4,733.11,1330.35Z"/><path class="cls-19" d="M1209.75,1273.34l131.1,117.58-140.5,160-131.1-117.58ZM1064,1142.59l131.1,117.58-140.5,160-131.1-117.58Zm728.92,653.74L1924,1913.91l-140.5,160-131.1-117.58Zm-437.35-392.24,131.1,117.58-140.5,160L1215,1564.07Zm583.14,523,131.1,117.58-140.5,160-131.1-117.58Zm-291.57-261.49,131.1,117.57-140.5,160-131.1-117.58Zm-145.79-130.75,131.1,117.58-140.5,160-131.1-117.58Zm-133.25-441.77,131.1,117.58-140.5,160-131.1-117.58ZM1222.28,962.33l131.11,117.58-140.5,160-131.1-117.57Zm728.93,653.74,131.1,117.58-140.5,160L1810.71,1776Zm-437.36-392.25L1645,1341.4l-140.49,160L1373.35,1383.8Zm583.14,523,131.1,117.58-140.5,160-131.1-117.58Zm-291.57-261.49,131.1,117.58-140.49,160-131.1-117.57Zm-145.78-130.75,131.1,117.58-140.5,160-131.1-117.58ZM1526.39,912.81l131.1,117.58-140.5,160-131.11-117.58ZM1380.6,782.06l131.1,117.58-140.5,160L1240.1,942Zm728.93,653.74,131.1,117.58-140.5,160L1969,1595.78Zm-437.36-392.24,131.1,117.57-140.5,160-131.1-117.58Zm583.14,523,131.1,117.58-140.5,160-131.1-117.57Zm-291.57-261.5,131.1,117.58-140.5,160L1823.24,1465ZM1818,1174.3l131.1,117.58-140.5,160-131.1-117.58Zm595.67,212,131.1,117.58-140.5,160-131.1-117.57ZM1684.71,732.54l131.1,117.58-140.5,160-131.1-117.58ZM1538.92,601.79,1670,719.37l-140.49,160L1398.42,761.77Zm728.93,653.74L2399,1373.11l-140.5,160-131.1-117.58ZM1830.49,863.29l131.1,117.57-140.5,160L1690,1023.26Zm291.57,261.49,131.1,117.58-140.5,160-131.1-117.58ZM1976.28,994l131.1,117.58-140.5,160L1835.78,1154Z"/><path class="cls-20" d="M1938.68,1927.08l131.1,117.58-140.5,160-131.1-117.58ZM2097,1746.81l131.1,117.58-140.5,160-131.1-117.58Zm158.32-180.26,131.1,117.58-140.5,160-131.1-117.57Zm158.32-180.27,131.1,117.58-140.5,160-131.1-117.57Z"/><path class="cls-21" d="M1523.13,712.18l8.89-10.33a88.3,88.3,0,0,0,10.85,7.74,18.61,18.61,0,0,0,10.91,2.39,17.5,17.5,0,0,0,7.73-3,16.7,16.7,0,0,0,3.24-2.58l12.57,10.9-66.44,77.15-15.48-13.42,45.82-53.21Z"/><path class="cls-21" d="M1640.48,869.51q9.88-4.92,29.35-3.1,16.9,1.55,22.78,1,9.08-1,14.25-7a16.24,16.24,0,0,0,4.3-10.49c.07-3.72-1.58-7-4.94-10q-6.9-6-13.83-3-4,1.74-9.86,8l-14.69-12.73q8.85-9.53,17.25-12.83,16-6.31,31.42,7.07,12.21,10.57,13.57,23.61t-8.25,24.21a32,32,0,0,1-18.19,10.8q-7.16,1.51-19.46.33l-9.76-.93q-9.17-.88-12.8-.88a22.61,22.61,0,0,0-7.15,1.14l33.57,29.1-11.5,13.36-52.67-45.65A47.79,47.79,0,0,1,1640.48,869.51Z"/><path class="cls-21" d="M1795.08,1000.64a23.15,23.15,0,0,0-5.12,9q-2,8,5.22,14.28a14.64,14.64,0,0,0,10.4,3.67q6-.18,10.9-5.93,6.55-7.61,2.61-15.49-2.28-4.47-9.8-11l9.35-10.86q7.45,6.29,11.52,7.49,7,2.13,12.83-4.68a13.43,13.43,0,0,0,3.62-9.42q-.19-5-4.86-9-5.37-4.64-10.81-3.42t-10.25,7L1806.58,960a49.94,49.94,0,0,1,11.36-9.21,32.32,32.32,0,0,1,13-3.3,26.94,26.94,0,0,1,10.64,2,40.25,40.25,0,0,1,11.25,7.25q11,9.55,12.87,21.14T1859.27,999a22.3,22.3,0,0,1-13.93,8,18.19,18.19,0,0,1-8.74-.6c1.38,1.19,2.33,4.1,2.87,8.72q1.15,10.36-6.87,19.69a32.56,32.56,0,0,1-21.59,11.35q-13.15,1.56-26.41-9.93-16.33-14.16-13.49-30.37,1.56-8.6,9.12-18.12Z"/><path class="cls-21" d="M1980.16,1171.49l-8.7-7.54-14.3,16.6-14.8-12.82,14.3-16.61-30.44-26.38,11.4-13.25,68.6-22.32,17,14.71-41.51,48.21,8.7,7.53Zm-13.28-32.23,28.68-33.31-47.93,16.62Z"/><path class="cls-21" d="M2094.1,1269.72q-3.36,5.74-3.13,10.63c.15,3.26,1.86,6.31,5.11,9.12q5.63,4.88,12,3.46t11.54-7.43a22.86,22.86,0,0,0,5.83-12.36q.75-6.47-5.09-11.52a19.25,19.25,0,0,0-5.37-3.44,12.42,12.42,0,0,0-9.43.09l-13-12.41,42.11-37.93,42.38,36.73-11.09,12.88-31.45-27.26-17.28,14.48a40.88,40.88,0,0,1,8.07,1.7,30.42,30.42,0,0,1,9.06,5.71,31.93,31.93,0,0,1,11.12,20.87q1.56,12.62-9,24.89a38.62,38.62,0,0,1-23.29,13.18q-14.09,2.48-27.71-9.34-11-9.52-13-21.53t6.59-23.57Z"/><path class="cls-21" d="M2238.27,1426.6a12.4,12.4,0,0,0,11.2,3.06q6.18-1.31,11.4-7.36,5.82-6.77,5.62-13.2a14,14,0,0,0-5-10.58,14.2,14.2,0,0,0-8.86-3.59q-7.44-.4-14.07,7.31-5.37,6.23-5.42,13.07A14.18,14.18,0,0,0,2238.27,1426.6Zm50.27-39.23a10.22,10.22,0,0,0,2.09-5.34c.45-3.82-1-7.16-4.26-10q-7.36-6.39-17.65-.8-5.62,3.1-14,11.49a22.28,22.28,0,0,1,10.73.76,29,29,0,0,1,9.82,5.82q10.23,8.87,10.78,21.51t-8.79,23.5a39.6,39.6,0,0,1-22.82,13.49q-13.53,2.68-27.05-9-14.54-12.6-10.94-30.76,2.85-14.18,15.82-29.22a147.7,147.7,0,0,1,13.11-13.73q9.79-8.68,19.25-11.93a34.76,34.76,0,0,1,16.37-1.52,30.68,30.68,0,0,1,15.69,7.65q10.71,9.29,12.33,20.31t-5.46,20.86Z"/><path class="cls-21" d="M2465.59,1520.35q-6.27.42-19.73,3.77a129,129,0,0,0-46.36,21.47q-11.53,8.12-17.26,14.77l-15.7-13.6q18.55-20.16,50.73-31.39,20.3-6.67,30.64-7.28l-38.36-33.24,11.94-13.43,54.32,47.07Z"/><path class="cls-21" d="M1357.9,947.44q5.19,4.5,10.85,3.91t10.55-6.28q5.09-5.91,4.72-11.56t-5.45-10.07q-5.1-4.43-10.73-4c-3.75.3-7.33,2.43-10.72,6.36s-4.81,7.59-4.66,11.38S1354.44,944.43,1357.9,947.44Zm11.17-43.85q-2.35-8.55-.29-14.33a29.59,29.59,0,0,1,5.31-9.56,24.92,24.92,0,0,1,18.66-8.88q11.43-.47,22.93,9.52t12.71,21.37a25.07,25.07,0,0,1-6,19.81,29.89,29.89,0,0,1-8.66,6.67q-5.4,2.89-13.72,1.26a28.26,28.26,0,0,1,1.25,15.85,32,32,0,0,1-7.26,14.25,29,29,0,0,1-21.47,10.35q-13.07.6-26-10.57t-13.64-23.75a30.33,30.33,0,0,1,7.65-22.33,31.1,31.1,0,0,1,13.07-9.2A24.59,24.59,0,0,1,1369.07,903.59Zm19.49,8.25c3.07,2.66,6.21,3.84,9.42,3.51a12.53,12.53,0,0,0,8.43-4.67q3.94-4.59,3.64-9.34t-4.9-8.76c-3.05-2.64-6.16-3.84-9.36-3.61s-6.11,1.88-8.74,4.93a12.49,12.49,0,0,0-3.33,9.09Q1384,907.88,1388.56,911.84Z"/><path class="cls-21" d="M1565.24,1001.88q17.57,15.23,10.66,36.47-3.9,12-16.32,26.47-12,14-23.66,20.28-22.14,11.94-40.28-3.78a33.78,33.78,0,0,1-11.12-18.61q-2.48-11.12,5-21.82l15.07,13a12.05,12.05,0,0,0-1.9,8,11.76,11.76,0,0,0,4.37,7.51q7.48,6.48,17.65.81,5.58-3.16,13.57-11.57a21.08,21.08,0,0,1-7.84.17q-6.45-1.11-12.65-6.5A31.56,31.56,0,0,1,1507,1031.9q-1.62-12.51,8.68-24.49,10.68-12.39,24.44-13.9T1565.24,1001.88Zm-26.09,44.29q8,1.17,15-7,5.64-6.54,5.89-13a13.44,13.44,0,0,0-5.06-11.08,13.71,13.71,0,0,0-8.5-3.56q-7.29-.37-14.3,7.77-5.91,6.87-6.08,12.71t5.61,10.86A13.86,13.86,0,0,0,1539.15,1046.17Z"/><path class="cls-21" d="M1636.19,1122.54l8.89-10.33a88.26,88.26,0,0,0,10.85,7.73,18.6,18.6,0,0,0,10.9,2.39,17.58,17.58,0,0,0,7.74-3,17,17,0,0,0,3.24-2.58l12.57,10.9-66.44,77.15-15.49-13.42,45.82-53.21Z"/><path class="cls-21" d="M1777.92,1250.05l8.89-10.33a88.26,88.26,0,0,0,10.85,7.73,18.6,18.6,0,0,0,10.9,2.39,17.58,17.58,0,0,0,7.74-3,17,17,0,0,0,3.24-2.58l12.57,10.9-66.44,77.15-15.49-13.42,45.82-53.21Z"/><path class="cls-21" d="M1673.69,1227.48q6.74,5.85,14.9.61t19.62-18.54q12-13.93,15.69-22.46t-3.06-14.36q-6.73-5.84-14.68-1t-20,18.76q-11.46,13.3-15.35,22.24T1673.69,1227.48Zm50.11-4.42q-16.44,19.1-31.25,24.3t-29.49-7.54q-14.68-12.73-11.72-28.18t19.42-34.55q16.46-19.1,31.31-24.35t29.54,7.48q14.69,12.73,11.67,28.23T1723.8,1223.06Z"/><path class="cls-21" d="M1838.33,1302.4l8.89-10.32a88.29,88.29,0,0,0,10.85,7.72,18.56,18.56,0,0,0,10.91,2.4,17.38,17.38,0,0,0,7.73-3,16.78,16.78,0,0,0,3.25-2.58l12.56,10.89-66.44,77.16-15.49-13.43,45.82-53.2Z"/><path class="cls-21" d="M1917.39,1378.94l8.89-10.32a88.29,88.29,0,0,0,10.85,7.72,18.56,18.56,0,0,0,10.91,2.4,17.5,17.5,0,0,0,7.73-3,16.7,16.7,0,0,0,3.24-2.58l12.58,10.89-66.45,77.16-15.48-13.43,45.82-53.2Z"/><path class="cls-21" d="M1944.46,1468.84q9.87-4.92,29.34-3.1,16.9,1.54,22.78,1,9.08-1,14.25-7a16.18,16.18,0,0,0,4.31-10.49c.06-3.72-1.59-7-5-10q-6.89-6-13.83-3-4,1.74-9.86,8l-14.69-12.73q8.85-9.52,17.26-12.83,16-6.32,31.42,7.07,12.19,10.58,13.57,23.61t-8.25,24.21a32,32,0,0,1-18.2,10.8q-7.14,1.53-19.45.33l-9.76-.93q-9.17-.87-12.81-.88a22.61,22.61,0,0,0-7.15,1.14l33.57,29.1-11.5,13.36-52.67-45.65A47.73,47.73,0,0,1,1944.46,1468.84Z"/><path class="cls-21" d="M2060.5,1507.59l8.89-10.32a89.84,89.84,0,0,0,10.85,7.73,18.61,18.61,0,0,0,10.9,2.39,17.58,17.58,0,0,0,7.74-3,17,17,0,0,0,3.24-2.58l12.57,10.9-66.44,77.15-15.49-13.42,45.82-53.21Z"/><path class="cls-21" d="M2105.66,1598.31a23,23,0,0,0-5.11,9q-2.06,8,5.22,14.28a14.65,14.65,0,0,0,10.4,3.67q6-.2,10.9-5.93,6.55-7.62,2.6-15.5-2.27-4.47-9.8-11l9.35-10.86q7.46,6.28,11.52,7.49,7,2.13,12.84-4.68a13.4,13.4,0,0,0,3.61-9.42q-.2-5-4.86-9-5.35-4.65-10.81-3.43c-3.63.81-7.05,3.16-10.25,7l-14.1-12.23a50.06,50.06,0,0,1,11.35-9.2,32.25,32.25,0,0,1,13-3.3,26.88,26.88,0,0,1,10.63,2,40.25,40.25,0,0,1,11.26,7.26q11,9.56,12.87,21.13t-6.46,21.21a22.23,22.23,0,0,1-13.93,8,18,18,0,0,1-8.73-.6c1.37,1.19,2.33,4.1,2.86,8.72q1.15,10.37-6.86,19.69a32.54,32.54,0,0,1-21.59,11.35q-13.16,1.58-26.41-9.93-16.33-14.16-13.5-30.37,1.56-8.58,9.12-18.11Z"/><path class="cls-21" d="M2206.82,1644.52l8.89-10.33a89.84,89.84,0,0,0,10.85,7.73,18.63,18.63,0,0,0,10.91,2.39,17.58,17.58,0,0,0,7.74-3,16.88,16.88,0,0,0,3.23-2.58l12.58,10.9-66.45,77.15-15.48-13.42,45.82-53.21Z"/><path class="cls-21" d="M2285,1776.18l-8.69-7.53-14.3,16.6-14.8-12.83,14.3-16.6L2231,1729.43l11.41-13.24,68.59-22.33,17,14.71-41.51,48.21,8.69,7.54ZM2271.71,1744l28.68-33.31-47.93,16.62Z"/><path class="cls-21" d="M1173.52,1043.85l8.89-10.32a89,89,0,0,0,10.85,7.73,18.6,18.6,0,0,0,10.9,2.39,17.41,17.41,0,0,0,7.74-3,16,16,0,0,0,3.24-2.58l12.57,10.9-66.44,77.15-15.49-13.42,45.83-53.21Z"/><path class="cls-21" d="M1216.28,1137.78q-3.35,5.74-3.13,10.63t5.11,9.12q5.64,4.88,12,3.46t11.53-7.43a23,23,0,0,0,5.84-12.36q.74-6.46-5.09-11.52a19.54,19.54,0,0,0-5.37-3.44,12.42,12.42,0,0,0-9.43.09l-13-12.41,42.12-37.93,42.38,36.73-11.09,12.87-31.45-27.26-17.29,14.48a41.62,41.62,0,0,1,8.08,1.71,30.46,30.46,0,0,1,9.06,5.71,31.92,31.92,0,0,1,11.11,20.87q1.56,12.6-9,24.89a38.67,38.67,0,0,1-23.29,13.18q-14.08,2.47-27.72-9.34-11-9.52-12.94-21.53t6.58-23.57Z"/><path class="cls-21" d="M1320.84,1165.92l8.89-10.32a89,89,0,0,0,10.85,7.73,18.7,18.7,0,0,0,10.91,2.4,17.52,17.52,0,0,0,7.73-3,16,16,0,0,0,3.24-2.58l12.57,10.9-66.44,77.15-15.48-13.42,45.82-53.21Z"/><path class="cls-21" d="M1367.18,1281a12.39,12.39,0,0,0,11.2,3.07q6.18-1.3,11.4-7.37,5.82-6.75,5.62-13.2a14,14,0,0,0-5-10.57,14.15,14.15,0,0,0-8.86-3.59q-7.42-.4-14.07,7.31-5.37,6.22-5.42,13.06A14.15,14.15,0,0,0,1367.18,1281Zm50.27-39.23a10.15,10.15,0,0,0,2.09-5.33q.68-5.73-4.25-10-7.38-6.39-17.66-.8-5.62,3.11-14,11.49a22.41,22.41,0,0,1,10.73.75,29,29,0,0,1,9.82,5.82q10.23,8.88,10.78,21.52t-8.79,23.5a39.65,39.65,0,0,1-22.82,13.49q-13.53,2.68-27.05-9-14.53-12.6-10.94-30.75,2.85-14.17,15.81-29.23a148.63,148.63,0,0,1,13.12-13.72q9.8-8.7,19.25-11.93A34.64,34.64,0,0,1,1410,1206a30.53,30.53,0,0,1,15.69,7.65q10.71,9.27,12.33,20.3t-5.46,20.87Z"/><path class="cls-21" d="M1460.46,1307.68l8.89-10.32a88.93,88.93,0,0,0,10.86,7.73,18.6,18.6,0,0,0,10.9,2.39,17.58,17.58,0,0,0,7.74-3,17,17,0,0,0,3.24-2.58l12.57,10.9L1448.22,1390l-15.49-13.42,45.82-53.21Z"/><path class="cls-21" d="M1580.16,1392.09q-6.29.4-19.73,3.76a129.63,129.63,0,0,0-46.37,21.47q-11.52,8.13-17.26,14.78l-15.7-13.61q18.57-20.15,50.74-31.38,20.29-6.67,30.63-7.28l-38.35-33.24,11.94-13.43,54.32,47.07Z"/><path class="cls-21" d="M1607.29,1428.84l8.89-10.33a89,89,0,0,0,10.85,7.73,18.61,18.61,0,0,0,10.9,2.39,17.41,17.41,0,0,0,7.74-3,16,16,0,0,0,3.24-2.58l12.57,10.9L1595,1511.14l-15.49-13.42,45.83-53.21Z"/><path class="cls-21" d="M1653,1543.14q5.19,4.52,10.85,3.92t10.54-6.28q5.09-5.91,4.73-11.56c-.24-3.78-2.06-7.13-5.46-10.08s-7-4.26-10.72-3.94-7.33,2.42-10.72,6.36q-4.89,5.68-4.66,11.38T1653,1543.14Zm11.17-43.84q-2.37-8.55-.3-14.34a30,30,0,0,1,5.32-9.56,24.91,24.91,0,0,1,18.66-8.87q11.42-.46,22.93,9.51t12.71,21.38a25,25,0,0,1-6,19.81,29.7,29.7,0,0,1-8.65,6.67q-5.41,2.88-13.73,1.25a28.31,28.31,0,0,1,1.26,15.86,31.88,31.88,0,0,1-7.27,14.24,29,29,0,0,1-21.46,10.36q-13.07.6-26-10.57T1628,1531.29a30.36,30.36,0,0,1,7.64-22.33,31.13,31.13,0,0,1,13.08-9.2A24.45,24.45,0,0,1,1664.15,1499.3Zm19.48,8.24q4.62,4,9.43,3.52a12.53,12.53,0,0,0,8.43-4.67q3.94-4.59,3.64-9.34c-.19-3.18-1.84-6.1-4.91-8.77s-6.16-3.84-9.35-3.6-6.11,1.88-8.74,4.93a12.45,12.45,0,0,0-3.33,9.09Q1679.07,1503.59,1683.63,1507.54Z"/><path class="cls-21" d="M1759.74,1565.15l8.89-10.33a87.56,87.56,0,0,0,10.85,7.73,18.62,18.62,0,0,0,10.91,2.4,17.5,17.5,0,0,0,7.73-3,16.7,16.7,0,0,0,3.24-2.58l12.57,10.89-66.44,77.16L1732,1634l45.82-53.2Z"/><path class="cls-21" d="M1862.7,1611.45q17.55,15.21,10.65,36.46-3.88,12-16.31,26.47-12,14-23.67,20.28-22.12,11.94-40.27-3.78a33.67,33.67,0,0,1-11.12-18.6q-2.48-11.12,5-21.83l15.06,13.06a12.1,12.1,0,0,0-1.9,8,11.75,11.75,0,0,0,4.38,7.5q7.47,6.48,17.64.81,5.6-3.15,13.57-11.57a21.3,21.3,0,0,1-7.84.18q-6.44-1.12-12.64-6.51a31.52,31.52,0,0,1-10.81-20.46q-1.64-12.53,8.68-24.49,10.68-12.4,24.43-13.91T1862.7,1611.45Zm-26.1,44.29q8,1.15,15-7,5.63-6.54,5.88-13a13.41,13.41,0,0,0-5-11.08,13.74,13.74,0,0,0-8.51-3.56q-7.29-.36-14.29,7.78-5.91,6.86-6.08,12.71t5.6,10.85A14,14,0,0,0,1836.6,1655.74Z"/><path class="cls-21" d="M1878.07,1740.81q9.89-4.9,29.34-3.09,16.92,1.54,22.78,1,9.07-1,14.25-7a16.21,16.21,0,0,0,4.31-10.48q.09-5.6-4.94-10-6.9-6-13.84-3-4,1.74-9.85,8l-14.69-12.73q8.83-9.52,17.25-12.83,16-6.32,31.42,7.06,12.21,10.58,13.57,23.61t-8.25,24.21a32,32,0,0,1-18.19,10.81q-7.15,1.52-19.46.32l-9.76-.92c-6.11-.59-10.37-.88-12.81-.89a22.56,22.56,0,0,0-7.14,1.15l33.57,29.1-11.5,13.35-52.67-45.64A47.73,47.73,0,0,1,1878.07,1740.81Z"/><path class="cls-21" d="M1957.37,1817.81q6.74,5.85,14.91.61t19.62-18.54q12-13.94,15.68-22.46t-3.06-14.36q-6.74-5.83-14.68-1t-20,18.76q-11.46,13.31-15.35,22.24T1957.37,1817.81Zm50.12-4.42q-16.46,19.11-31.26,24.3t-29.49-7.54q-14.68-12.72-11.72-28.18t19.43-34.54q16.46-19.11,31.3-24.36t29.54,7.48q14.68,12.73,11.67,28.24T2007.49,1813.39Z"/><path class="cls-21" d="M2035.41,1868.73q9.87-4.92,29.34-3.1,16.92,1.55,22.78,1,9.07-1,14.25-7a16.31,16.31,0,0,0,4.31-10.49q.09-5.6-5-10-6.88-6-13.83-3-4,1.74-9.86,8l-14.69-12.73q8.85-9.52,17.26-12.83,16-6.32,31.42,7.07,12.2,10.58,13.57,23.61t-8.25,24.21a32,32,0,0,1-18.2,10.8q-7.14,1.53-19.46.33l-9.75-.93c-6.11-.58-10.37-.88-12.81-.89a22.91,22.91,0,0,0-7.15,1.15l33.58,29.1-11.51,13.36-52.66-45.65A47.61,47.61,0,0,1,2035.41,1868.73Z"/><path class="cls-21" d="M2129.16,1883.55l8.9-10.33a88,88,0,0,0,10.84,7.73,18.73,18.73,0,0,0,10.91,2.4,20.33,20.33,0,0,0,11-5.54l12.57,10.89-66.44,77.16-15.49-13.43,45.82-53.21Z"/><path class="cls-21" d="M993,1256q9.88-4.92,29.35-3.1,16.91,1.54,22.78,1,9.07-1,14.25-7a16.22,16.22,0,0,0,4.3-10.49c.06-3.72-1.58-7.05-4.94-10q-6.9-6-13.84-3-4,1.74-9.85,8l-14.69-12.73q8.83-9.52,17.25-12.83,16-6.32,31.43,7.07,12.2,10.57,13.57,23.61t-8.26,24.21a32,32,0,0,1-18.19,10.8q-7.15,1.53-19.46.33L1027,1271q-9.16-.87-12.82-.88a22.66,22.66,0,0,0-7.15,1.14l33.58,29.1-11.5,13.36-52.67-45.65A47.7,47.7,0,0,1,993,1256Z"/><path class="cls-21" d="M1053.44,1308.35q9.87-4.92,29.34-3.1,16.9,1.55,22.78,1,9.07-1,14.25-7a16.31,16.31,0,0,0,4.31-10.49c.05-3.73-1.59-7-4.95-10q-6.9-6-13.84-3-4,1.74-9.85,8l-14.69-12.73q8.85-9.52,17.26-12.83,16-6.32,31.42,7.07,12.19,10.58,13.57,23.61t-8.26,24.21a31.93,31.93,0,0,1-18.19,10.8q-7.15,1.53-19.46.33l-9.75-.93q-9.17-.87-12.82-.89a22.9,22.9,0,0,0-7.14,1.15l33.57,29.1-11.5,13.36-52.67-45.65A47.64,47.64,0,0,1,1053.44,1308.35Z"/><path class="cls-21" d="M1136.53,1394.77q9.87-4.9,29.34-3.09,16.92,1.54,22.78,1,9.07-1,14.25-7a16.23,16.23,0,0,0,4.31-10.48q.09-5.6-4.94-10-6.91-6-13.84-3-4,1.74-9.85,8l-14.7-12.74q8.85-9.52,17.26-12.83,16-6.32,31.42,7.07,12.2,10.58,13.57,23.61t-8.25,24.21a32.05,32.05,0,0,1-18.2,10.81q-7.14,1.52-19.45.32l-9.76-.93q-9.17-.87-12.81-.88a23,23,0,0,0-7.15,1.14l33.58,29.11-11.51,13.35-52.66-45.64A47.73,47.73,0,0,1,1136.53,1394.77Z"/><path class="cls-21" d="M1215,1448a22.85,22.85,0,0,0-5.11,9q-2.06,8,5.21,14.27a14.66,14.66,0,0,0,10.41,3.68c4-.12,7.59-2.11,10.89-5.94q6.55-7.61,2.6-15.49-2.26-4.47-9.79-11l9.35-10.86q7.45,6.3,11.52,7.49,7,2.13,12.83-4.68a13.36,13.36,0,0,0,3.61-9.42q-.18-5-4.86-9c-3.56-3.09-7.17-4.23-10.8-3.42s-7.06,3.15-10.25,7l-14.11-12.23a50.43,50.43,0,0,1,11.36-9.21,32.32,32.32,0,0,1,13-3.29,26.91,26.91,0,0,1,10.63,2,40.39,40.39,0,0,1,11.25,7.25q11,9.57,12.87,21.14t-6.45,21.21a22.23,22.23,0,0,1-13.93,8,18.19,18.19,0,0,1-8.74-.6c1.38,1.19,2.33,4.1,2.87,8.72q1.15,10.38-6.87,19.69A32.61,32.61,0,0,1,1231,1493.5q-13.15,1.56-26.42-9.94-16.33-14.16-13.49-30.37,1.56-8.58,9.12-18.11Z"/><path class="cls-21" d="M1282.33,1524.32q9.87-4.92,29.34-3.1,16.92,1.54,22.78,1,9.08-1,14.25-7a16.26,16.26,0,0,0,4.31-10.49q.09-5.6-4.94-10-6.9-6-13.84-3-4,1.74-9.86,8l-14.69-12.74q8.85-9.51,17.26-12.83,16-6.3,31.42,7.08,12.2,10.56,13.57,23.61t-8.25,24.21a32,32,0,0,1-18.2,10.8q-7.14,1.52-19.45.33l-9.76-.93q-9.16-.88-12.81-.89a22.56,22.56,0,0,0-7.14,1.15l33.57,29.1-11.51,13.36-52.67-45.65A47.82,47.82,0,0,1,1282.33,1524.32Z"/><path class="cls-21" d="M1393.84,1618.44l-8.7-7.54-14.3,16.61-14.8-12.83,14.3-16.6-30.44-26.39,11.4-13.24,68.6-22.32,17,14.7L1395.36,1599l8.69,7.54Zm-13.28-32.23,28.68-33.3-47.94,16.62Z"/><path class="cls-21" d="M1427.52,1655.89q9.87-4.92,29.34-3.1,16.91,1.55,22.78,1,9.08-1,14.25-7a16.31,16.31,0,0,0,4.31-10.49c0-3.73-1.59-7-5-10q-6.9-6-13.84-3-4,1.74-9.85,8l-14.69-12.74q8.85-9.51,17.26-12.82,16-6.32,31.42,7.07,12.2,10.57,13.57,23.61t-8.26,24.21a31.93,31.93,0,0,1-18.19,10.8q-7.15,1.51-19.46.33l-9.75-.93q-9.17-.89-12.82-.89a22.56,22.56,0,0,0-7.14,1.15l33.57,29.1-11.5,13.36L1410.9,1668A47.64,47.64,0,0,1,1427.52,1655.89Z"/><path class="cls-21" d="M1503.63,1712.27q-3.36,5.74-3.13,10.63t5.11,9.12q5.63,4.88,12,3.46t11.54-7.42a23,23,0,0,0,5.83-12.37q.74-6.46-5.09-11.52a19.54,19.54,0,0,0-5.37-3.44,12.42,12.42,0,0,0-9.43.09l-13-12.4,42.11-37.94,42.38,36.73-11.09,12.88L1544,1672.83l-17.29,14.48a41.59,41.59,0,0,1,8.08,1.7,30.43,30.43,0,0,1,9.07,5.72,31.9,31.9,0,0,1,11.1,20.86q1.56,12.62-9,24.9a38.71,38.71,0,0,1-23.3,13.17q-14.09,2.47-27.71-9.34-11-9.52-13-21.53t6.58-23.57Z"/><path class="cls-21" d="M1572.35,1783.68q9.89-4.92,29.34-3.1,16.92,1.56,22.78,1,9.08-1,14.25-7a16.2,16.2,0,0,0,4.31-10.49q.09-5.6-4.94-10-6.9-6-13.84-3-4,1.72-9.85,8l-14.69-12.73q8.83-9.53,17.25-12.83,16-6.31,31.42,7.07,12.21,10.57,13.57,23.61t-8.25,24.21a32.06,32.06,0,0,1-18.19,10.81q-7.15,1.52-19.46.32l-9.76-.93c-6.11-.58-10.37-.88-12.81-.89a22.85,22.85,0,0,0-7.14,1.15l33.57,29.1-11.5,13.36-52.67-45.65A47.7,47.7,0,0,1,1572.35,1783.68Z"/><path class="cls-21" d="M1652,1861.2a12.43,12.43,0,0,0,11.21,3.06q6.18-1.29,11.39-7.36,5.82-6.76,5.63-13.2a14,14,0,0,0-5-10.58,14.28,14.28,0,0,0-8.86-3.59q-7.42-.4-14.08,7.31-5.36,6.23-5.41,13.06A14.19,14.19,0,0,0,1652,1861.2Zm50.28-39.23a10.15,10.15,0,0,0,2.09-5.34q.67-5.73-4.26-10-7.37-6.39-17.65-.8-5.64,3.11-14,11.49a22.49,22.49,0,0,1,10.75.76,29.28,29.28,0,0,1,9.8,5.81q10.25,8.88,10.79,21.53t-8.8,23.49a39.62,39.62,0,0,1-22.82,13.49q-13.52,2.68-27-9-14.52-12.58-10.93-30.75,2.85-14.17,15.81-29.23a146,146,0,0,1,13.12-13.72q9.8-8.69,19.26-11.93a34.71,34.71,0,0,1,16.36-1.52,30.68,30.68,0,0,1,15.69,7.65q10.71,9.29,12.33,20.31t-5.46,20.87Z"/><path class="cls-21" d="M1726.09,1911.77q9.87-4.9,29.34-3.1,16.9,1.56,22.78,1,9.07-1,14.25-7a16.28,16.28,0,0,0,4.31-10.48q.09-5.6-5-10c-4.59-4-9.21-5-13.83-3q-4,1.74-9.86,8l-14.69-12.74q8.85-9.52,17.26-12.83,16-6.3,31.42,7.07,12.2,10.58,13.57,23.61t-8.26,24.21a32,32,0,0,1-18.19,10.81q-7.14,1.52-19.46.32l-9.75-.93q-9.16-.87-12.81-.88a22.62,22.62,0,0,0-7.15,1.15l33.57,29.09-11.5,13.36-52.67-45.64A47.67,47.67,0,0,1,1726.09,1911.77Z"/><path class="cls-21" d="M1879.13,1958.64q-6.29.42-19.73,3.77a138.43,138.43,0,0,0-25.42,9,140.07,140.07,0,0,0-21,12.5q-11.54,8.13-17.26,14.78l-15.7-13.61q18.56-20.14,50.74-31.38,20.3-6.67,30.63-7.28l-38.35-33.24L1835,1899.7l54.31,47.08Z"/><path class="cls-21" d="M1865.73,2042.94q9.88-4.9,29.35-3.09,16.9,1.55,22.78,1,9.06-1,14.25-7a16.24,16.24,0,0,0,4.3-10.49q.09-5.59-4.94-10-6.9-6-13.84-3c-2.66,1.17-5.94,3.83-9.85,8l-14.69-12.73q8.85-9.53,17.25-12.83,16-6.31,31.42,7.06,12.21,10.59,13.57,23.61t-8.25,24.21a32,32,0,0,1-18.19,10.81q-7.16,1.52-19.46.32l-9.76-.92c-6.11-.59-10.37-.88-12.81-.89a22.9,22.9,0,0,0-7.14,1.15l33.57,29.1-11.5,13.35L1849.12,2055A47.73,47.73,0,0,1,1865.73,2042.94Z"/><path class="cls-21" d="M1944.77,2119.72q5.19,4.5,10.85,3.91t10.54-6.28q5.08-5.91,4.73-11.56t-5.45-10.07q-5.1-4.42-10.73-3.95c-3.76.3-7.33,2.43-10.72,6.36s-4.82,7.59-4.66,11.38S1941.3,2116.71,1944.77,2119.72Zm11.16-43.85q-2.36-8.55-.29-14.33A29.79,29.79,0,0,1,1961,2052a24.92,24.92,0,0,1,18.66-8.88q11.42-.46,22.93,9.52t12.71,21.37a25.07,25.07,0,0,1-6,19.81,29.84,29.84,0,0,1-8.65,6.67q-5.41,2.9-13.73,1.26a28.35,28.35,0,0,1,1.26,15.85,32,32,0,0,1-7.26,14.25,29,29,0,0,1-21.47,10.35q-13.06.6-26-10.57t-13.63-23.75a30.36,30.36,0,0,1,7.64-22.33,31.23,31.23,0,0,1,13.07-9.2A24.59,24.59,0,0,1,1955.93,2075.87Zm19.49,8.25c3.08,2.66,6.22,3.84,9.43,3.51a12.55,12.55,0,0,0,8.43-4.67q3.95-4.59,3.64-9.34t-4.91-8.76q-4.56-4-9.36-3.61t-8.73,4.93a12.5,12.5,0,0,0-3.34,9.09Q1970.87,2080.16,1975.42,2084.12Z"/><path class="cls-22" d="M2533.68,1641.63c44.58-49.71,40.55-126.37-9-171.09l-484.52-437.32a121,121,0,0,0-161.55,180.14l484.51,437.31A120.55,120.55,0,0,0,2533.68,1641.63Z"/><path class="cls-22" d="M1758.88,1259.86a121.49,121.49,0,0,0-9-171.1l-303-273.5a120.55,120.55,0,0,0-170.55,9c-44.58,49.72-40.55,126.38,9,171.1l303,273.51A120.55,120.55,0,0,0,1758.88,1259.86Z"/><path class="cls-19" d="M1781.84,576.81c14.85-15.32,39.9-16.36,55.91-2.32L2504,1158.41a36.37,36.37,0,0,1,2.12,53.18l-53.79,55.49c-14.85,15.32-39.9,16.36-55.91,2.33L1730.17,685.48a36.36,36.36,0,0,1-2.12-53.17Z"/><path class="cls-23" d="M1720.54,2332.75a72.25,72.25,0,0,1,9.33-9.41c14.11-11.73,31.65.35,46.25-12.35,162.69-141.62,336.38-258.46,477.58-424,17.27-20.23,187.29-264.06,213.91-269.62,86.7-18.13,109.89,101.07,105.52,162.66l-631.27,777.39ZM1328.32,588c99.24-14.39,214.16-27,218.94.89,14.37,84-118,161.72-186.18,183.58-66.14,21.22-156.76,16.38-206.69,73.56-103.19,118.15-188,265.67-294.93,377.41-25.39,26.55-61.78,46.34-95.62,68.64Z"/><ellipse class="cls-24" cx="2836.01" cy="1285.37" rx="20.88" ry="12.46" transform="translate(252.21 3022.92) rotate(-58.3)"/><path class="cls-25" d="M2912.82,1215.36l-14.09-12-55.13,62.93c9.59,4.21,8.36,12.52,5.08,21.61Z"/><path class="cls-26" d="M2981.74,1222.52q4.29-5.4,8.38-11c26.38-36.15,39.1-69.77,38.32-91.78-.65-18.38-9.63-30-26.64-32.43-14.51-2-34.08,3.77-55.29,16.39-28.63,17-60.74,46.42-86.1,81.16-26.38,36.14-39.11,69.76-38.32,91.77.34,9.77,3,17.63,8,23.22,12.07-3.46,18.41-10.56,16.93-22.62-1.48-4.08-1.58-9.43-.64-15.55,2.72-17.65,13.8-40.94,32-65.88,22.52-30.85,50.89-57.1,76.31-72.23,14.83-8.82,28.42-14,38.56-12.57s12.78,10.9,10.82,23.69c-2.72,17.65-13.81,41-32,65.88q-3,4.14-6.16,8.15Z"/><path class="cls-27" d="M2885.64,1186.34c-5.77,6.6-11.32,13.52-16.56,20.7-18.2,24.94-29.28,48.22-32,65.89-.94,6.1-.84,11.47.64,15.54a22.71,22.71,0,0,1-.43,8.55c7.33-4,10.92-10.38,9.77-19.77-1.47-4.08-1.58-9.43-.64-15.55,2.72-17.65,13.81-41,32-65.89C2880.76,1192.62,2883.18,1189.44,2885.64,1186.34Zm95.62,35.76.49.4q4.27-5.38,8.37-11c26.38-36.15,39.1-69.77,38.32-91.78-.65-18.38-9.63-30-26.64-32.43-14.51-2-34.08,3.77-55.29,16.39-25.56,15.2-53.9,40.26-77.72,70.18,21.68-24.94,46.09-45.7,68.38-59,21.21-12.62,40.78-18.43,55.29-16.38,17,2.39,26,14,26.64,32.42C3019.87,1152.86,3007.31,1186.2,2981.26,1222.1Z"/><ellipse class="cls-24" cx="2709.49" cy="1172.99" rx="20.88" ry="12.46" transform="translate(287.79 2861.95) rotate(-58.3)"/><path class="cls-25" d="M2786.31,1103l-14.09-12L2717.08,1154c9.59,4.22,8.36,12.53,5.09,21.61Z"/><path class="cls-26" d="M2855.23,1110.14q4.29-5.39,8.37-11c26.38-36.14,39.11-69.76,38.33-91.78-.65-18.38-9.63-30-26.64-32.42-14.52-2-34.09,3.77-55.3,16.38-28.62,17-60.73,46.42-86.09,81.16-26.38,36.15-39.11,69.77-38.32,91.77.34,9.78,3,17.64,8,23.23,12.06-3.47,18.41-10.57,16.92-22.62-1.47-4.09-1.57-9.44-.63-15.56,2.71-17.65,13.8-40.94,32-65.87,22.52-30.85,50.89-57.11,76.31-72.23,14.83-8.82,28.41-14,38.56-12.57s12.78,10.9,10.81,23.68c-2.71,17.65-13.8,40.95-32,65.88q-3,4.14-6.17,8.16Z"/><path class="cls-28" d="M2759.12,1074c-5.76,6.6-11.31,13.53-16.55,20.71-18.2,24.93-29.28,48.22-32,65.88-.93,6.11-.83,11.47.65,15.54a22.9,22.9,0,0,1-.43,8.55c7.33-4,10.91-10.38,9.76-19.76-1.47-4.09-1.58-9.43-.63-15.56,2.71-17.64,13.8-41,32-65.88C2754.25,1080.24,2756.66,1077.06,2759.12,1074Zm95.62,35.76.49.41q4.29-5.39,8.37-11c26.38-36.14,39.11-69.76,38.33-91.78-.65-18.37-9.63-30-26.64-32.42-14.52-2.05-34.09,3.76-55.3,16.38-25.55,15.2-53.89,40.26-77.72,70.18,21.69-24.94,46.09-45.69,68.38-59,21.21-12.61,40.78-18.42,55.3-16.38,17,2.39,26,14.05,26.64,32.42C2893.36,1040.48,2880.8,1073.82,2854.74,1109.72Z"/><ellipse class="cls-24" cx="2582.98" cy="1060.61" rx="20.88" ry="12.46" transform="translate(323.36 2700.98) rotate(-58.3)"/><path class="cls-25" d="M2659.79,990.6l-14.08-12-55.14,62.93c9.59,4.21,8.36,12.52,5.09,21.6Z"/><path class="cls-26" d="M2728.71,997.76q4.29-5.38,8.38-11c26.38-36.14,39.1-69.76,38.32-91.78-.65-18.37-9.63-30-26.64-32.42-14.51-2-34.08,3.77-55.29,16.39-28.63,17-60.74,46.42-86.1,81.15-26.38,36.15-39.1,69.77-38.32,91.78.34,9.77,3,17.63,8,23.22,12.07-3.47,18.41-10.56,16.93-22.62-1.47-4.08-1.58-9.44-.63-15.56,2.71-17.64,13.79-40.94,32-65.87,22.52-30.85,50.9-57.11,76.32-72.23,14.82-8.82,28.41-14,38.56-12.57s12.78,10.9,10.81,23.69c-2.72,17.65-13.81,40.95-32,65.88q-3,4.13-6.17,8.15Z"/><path class="cls-29" d="M2632.61,961.59c-5.76,6.6-11.32,13.52-16.56,20.7-18.2,24.94-29.28,48.22-32,65.88-.94,6.11-.84,11.47.64,15.54a22.49,22.49,0,0,1-.43,8.55c7.34-4,10.92-10.37,9.77-19.76-1.47-4.09-1.58-9.43-.63-15.56,2.71-17.64,13.8-40.94,32-65.88C2627.74,967.86,2630.15,964.69,2632.61,961.59Zm95.62,35.75.49.41q4.29-5.38,8.37-11c26.38-36.14,39.1-69.76,38.32-91.78-.65-18.37-9.63-30-26.64-32.42-14.51-2-34.08,3.77-55.29,16.39-25.56,15.2-53.89,40.26-77.72,70.18,21.68-24.95,46.09-45.7,68.38-59,21.21-12.62,40.78-18.43,55.29-16.39,17,2.4,26,14.05,26.64,32.43C2766.85,928.11,2754.28,961.45,2728.23,997.34Z"/><ellipse class="cls-24" cx="2453.75" cy="948.87" rx="20.88" ry="12.46" transform="translate(357.11 2538) rotate(-58.3)"/><path class="cls-25" d="M2530.57,878.86l-14.09-12-55.14,62.93c9.59,4.21,8.36,12.53,5.09,21.61Z"/><path class="cls-26" d="M2599.49,886q4.29-5.4,8.37-11c26.38-36.14,39.1-69.76,38.33-91.78-.65-18.38-9.63-30-26.65-32.42-14.51-2.05-34.08,3.76-55.29,16.38-28.62,17-60.74,46.42-86.09,81.16-26.39,36.14-39.11,69.76-38.33,91.77.34,9.77,3,17.64,8.05,23.23,12.06-3.47,18.4-10.57,16.92-22.62-1.47-4.09-1.58-9.44-.63-15.56,2.71-17.65,13.8-40.94,32-65.88,22.52-30.85,50.89-57.1,76.31-72.22,14.82-8.82,28.41-14,38.56-12.58s12.78,10.91,10.81,23.69c-2.71,17.65-13.8,40.95-32,65.88q-3,4.14-6.17,8.15Z"/><path class="cls-30" d="M2503.38,849.84c-5.76,6.6-11.31,13.52-16.55,20.7-18.2,24.94-29.29,48.23-32,65.89-.93,6.11-.84,11.47.65,15.54a22.92,22.92,0,0,1-.43,8.55c7.33-4,10.91-10.38,9.76-19.76-1.47-4.09-1.58-9.44-.63-15.56,2.71-17.65,13.8-41,32-65.89C2498.51,856.12,2500.92,852.94,2503.38,849.84ZM2599,885.6l.49.41q4.29-5.38,8.37-11c26.38-36.15,39.11-69.77,38.33-91.78-.65-18.38-9.63-30-26.64-32.43-14.52-2-34.09,3.77-55.3,16.39-25.55,15.2-53.89,40.26-77.72,70.18,21.69-24.94,46.09-45.7,68.38-59,21.21-12.61,40.78-18.43,55.29-16.38,17,2.39,26,14.05,26.65,32.42C2637.62,816.36,2625.06,849.7,2599,885.6Z"/><ellipse class="cls-24" cx="2324.83" cy="837.32" rx="20.88" ry="12.46" transform="translate(390.84 2375.38) rotate(-58.3)"/><path class="cls-25" d="M2401.64,767.31l-14.09-12-55.13,62.94c9.59,4.21,8.35,12.52,5.08,21.6Z"/><path class="cls-26" d="M2470.56,774.47q4.29-5.38,8.37-11c26.38-36.14,39.11-69.76,38.33-91.78-.65-18.37-9.63-30-26.64-32.42-14.52-2-34.09,3.77-55.3,16.38-28.62,17-60.73,46.42-86.09,81.16-26.38,36.15-39.11,69.77-38.32,91.77.34,9.78,3,17.64,8,23.23,12.06-3.47,18.41-10.56,16.92-22.62-1.47-4.09-1.57-9.44-.63-15.56,2.71-17.64,13.8-40.94,32-65.87,22.52-30.85,50.89-57.11,76.31-72.23,14.83-8.82,28.42-14,38.56-12.57s12.78,10.9,10.81,23.69c-2.71,17.65-13.8,41-32,65.88q-3,4.13-6.16,8.15Z"/><path class="cls-31" d="M2374.45,738.3c-5.76,6.6-11.31,13.52-16.55,20.7-18.2,24.94-29.28,48.22-32,65.88-.94,6.11-.84,11.47.64,15.54a22.9,22.9,0,0,1-.43,8.55c7.33-4,10.92-10.37,9.76-19.76-1.47-4.09-1.57-9.43-.63-15.56,2.71-17.64,13.8-40.94,32-65.88C2369.58,744.57,2372,741.4,2374.45,738.3Zm95.63,35.75.48.41q4.29-5.38,8.37-11c26.38-36.14,39.11-69.76,38.33-91.78-.65-18.37-9.63-30-26.64-32.42-14.52-2-34.09,3.77-55.29,16.38-25.56,15.21-53.9,40.26-77.73,70.19,21.69-25,46.09-45.7,68.38-59,21.21-12.62,40.78-18.43,55.3-16.39,17,2.4,26,14,26.64,32.43C2508.69,704.82,2496.13,738.16,2470.08,774.05Z"/><ellipse class="cls-24" cx="2200.49" cy="726.35" rx="20.88" ry="12.46" transform="translate(426.25 2216.93) rotate(-58.3)"/><path class="cls-25" d="M2277.3,656.34l-14.09-12-55.13,62.93c9.59,4.21,8.36,12.52,5.08,21.61Z"/><path class="cls-26" d="M2346.22,663.5q4.29-5.38,8.38-11c26.38-36.14,39.1-69.76,38.32-91.78-.65-18.37-9.63-30-26.64-32.42-14.51-2-34.08,3.77-55.29,16.39-28.63,17-60.74,46.42-86.1,81.15-26.38,36.15-39.1,69.77-38.32,91.78.34,9.77,3,17.63,8,23.22,12.07-3.47,18.41-10.56,16.93-22.62-1.48-4.08-1.58-9.44-.64-15.56,2.72-17.64,13.8-40.94,32-65.87,22.52-30.85,50.9-57.11,76.31-72.23,14.83-8.82,28.42-14,38.56-12.57s12.78,10.9,10.82,23.69c-2.72,17.65-13.81,40.95-32,65.88q-3,4.13-6.17,8.15Z"/><path class="cls-32" d="M2250.12,627.33c-5.76,6.6-11.32,13.52-16.56,20.7-18.2,24.94-29.28,48.22-32,65.88-.94,6.11-.84,11.47.64,15.54a22.7,22.7,0,0,1-.43,8.55c7.33-4,10.92-10.37,9.77-19.76-1.47-4.09-1.58-9.43-.64-15.56,2.72-17.64,13.81-40.94,32-65.88C2245.24,633.6,2247.66,630.43,2250.12,627.33Zm95.62,35.75.49.41q4.28-5.38,8.37-11c26.38-36.14,39.1-69.76,38.32-91.78-.65-18.37-9.63-30-26.64-32.42-14.51-2-34.08,3.77-55.29,16.39-25.56,15.2-53.89,40.26-77.72,70.18,21.68-24.95,46.09-45.7,68.38-59,21.21-12.62,40.78-18.43,55.29-16.39,17,2.4,26,14.05,26.64,32.43C2384.36,593.85,2371.79,627.19,2345.74,663.08Z"/><ellipse class="cls-24" cx="2072.93" cy="614.92" rx="20.88" ry="12.46" transform="matrix(0.53, -0.85, 0.85, 0.53, 460.52, 2055.51)"/><path class="cls-25" d="M2149.74,544.91l-14.09-12-55.13,62.93c9.59,4.21,8.36,12.53,5.08,21.61Z"/><path class="cls-26" d="M2218.66,552.07q4.29-5.4,8.37-11c26.39-36.15,39.11-69.76,38.33-91.78-.65-18.38-9.63-30-26.64-32.43-14.51-2-34.09,3.77-55.29,16.39-28.63,17-60.74,46.42-86.1,81.16-26.38,36.14-39.11,69.76-38.32,91.77.34,9.77,3,17.64,8,23.23,12.07-3.47,18.41-10.57,16.93-22.62-1.48-4.09-1.58-9.44-.64-15.56,2.72-17.65,13.8-40.94,32-65.88,22.52-30.85,50.89-57.1,76.31-72.22,14.83-8.82,28.42-14,38.56-12.58S2243,451.48,2241,464.26c-2.72,17.65-13.81,40.95-32,65.88q-3,4.14-6.16,8.15Z"/><path class="cls-33" d="M2122.56,515.89c-5.77,6.6-11.32,13.52-16.56,20.7-18.2,24.94-29.28,48.23-32,65.89-.94,6.11-.84,11.47.64,15.54a22.71,22.71,0,0,1-.43,8.55c7.33-4,10.92-10.38,9.77-19.76-1.48-4.09-1.58-9.44-.64-15.56,2.71-17.65,13.8-41,32-65.89C2117.68,522.17,2120.1,519,2122.56,515.89Zm95.62,35.76.49.41q4.27-5.38,8.36-11c26.39-36.15,39.11-69.77,38.33-91.78-.65-18.38-9.63-30-26.64-32.43-14.51-2-34.09,3.77-55.29,16.39-25.56,15.2-53.9,40.26-77.73,70.18,21.69-24.94,46.09-45.7,68.39-59,21.2-12.61,40.77-18.43,55.29-16.38,17,2.39,26,14.05,26.64,32.42C2256.79,482.41,2244.23,515.75,2218.18,551.65Z"/><ellipse class="cls-24" cx="1946.56" cy="505.14" rx="20.88" ry="12.46" transform="translate(493.96 1895.9) rotate(-58.3)"/><path class="cls-25" d="M2023.38,435.13l-14.09-12-55.14,62.94c9.59,4.21,8.36,12.52,5.09,21.6Z"/><path class="cls-26" d="M2092.3,442.29q4.29-5.39,8.37-11c26.38-36.14,39.11-69.76,38.33-91.78-.65-18.37-9.63-30-26.64-32.42-14.52-2-34.09,3.77-55.3,16.38-28.62,17-60.74,46.42-86.09,81.16-26.38,36.15-39.11,69.77-38.32,91.77.34,9.78,3,17.64,8,23.23,12.06-3.47,18.41-10.56,16.92-22.62-1.47-4.08-1.57-9.44-.63-15.56,2.71-17.64,13.8-40.94,32-65.87,22.52-30.85,50.89-57.11,76.31-72.23,14.83-8.82,28.41-14,38.56-12.57s12.78,10.9,10.81,23.69c-2.71,17.65-13.8,40.95-32,65.88q-3,4.13-6.17,8.15Z"/><path class="cls-34" d="M1996.19,406.12c-5.76,6.6-11.31,13.52-16.55,20.7-18.2,24.94-29.29,48.22-32,65.88-.93,6.11-.83,11.47.65,15.54a22.9,22.9,0,0,1-.43,8.55c7.33-4,10.91-10.37,9.76-19.76-1.47-4.09-1.58-9.43-.63-15.56,2.71-17.64,13.8-40.94,32-65.88C1991.32,412.39,1993.73,409.22,1996.19,406.12Zm95.62,35.75.49.41q4.29-5.38,8.37-11c26.38-36.14,39.11-69.76,38.33-91.78-.65-18.37-9.63-30-26.64-32.42-14.52-2-34.09,3.77-55.3,16.38-25.55,15.21-53.89,40.26-77.72,70.19,21.69-24.95,46.09-45.7,68.38-59,21.21-12.62,40.78-18.43,55.3-16.39,17,2.4,26,14.05,26.64,32.43C2130.43,372.64,2117.87,406,2091.81,441.87Z"/><ellipse class="cls-24" cx="1817.94" cy="393.46" rx="20.88" ry="12.46" transform="translate(527.95 1733.47) rotate(-58.3)"/><path class="cls-25" d="M1894.76,323.45l-14.09-12-55.14,62.93c9.6,4.21,8.36,12.52,5.09,21.61Z"/><path class="cls-26" d="M1963.68,330.61q4.29-5.4,8.37-11c26.38-36.15,39.11-69.77,38.33-91.78-.65-18.38-9.63-30-26.64-32.43-14.52-2-34.09,3.77-55.3,16.39-28.62,17-60.73,46.42-86.09,81.16-26.38,36.14-39.11,69.76-38.32,91.77.34,9.77,3,17.63,8,23.22,12.06-3.46,18.41-10.56,16.92-22.62-1.47-4.08-1.57-9.43-.63-15.55,2.71-17.65,13.8-40.94,32-65.88,22.52-30.85,50.89-57.1,76.31-72.23,14.83-8.82,28.42-14,38.56-12.57S1988,230,1986,242.8c-2.71,17.65-13.8,40.95-32,65.88q-3,4.14-6.17,8.15Z"/><path class="cls-35" d="M1867.57,294.43c-5.76,6.6-11.31,13.52-16.55,20.7-18.2,24.94-29.28,48.22-32,65.89-.94,6.1-.84,11.47.64,15.54a22.92,22.92,0,0,1-.43,8.55c7.33-4,10.92-10.38,9.76-19.77-1.47-4.08-1.57-9.43-.63-15.55,2.71-17.65,13.8-41,32-65.89C1862.7,300.71,1865.11,297.53,1867.57,294.43Zm95.62,35.76.49.4q4.29-5.38,8.37-11c26.38-36.15,39.11-69.77,38.33-91.78-.65-18.38-9.63-30-26.64-32.43-14.52-2-34.09,3.77-55.29,16.39-25.56,15.2-53.9,40.26-77.73,70.18,21.69-24.94,46.09-45.7,68.38-59,21.21-12.62,40.78-18.43,55.3-16.38,17,2.39,26,14,26.64,32.42C2001.81,261,1989.25,294.29,1963.19,330.19Z"/><ellipse class="cls-24" cx="1691.15" cy="280.69" rx="20.88" ry="12.46" transform="translate(563.72 1572.07) rotate(-58.3)"/><path class="cls-25" d="M1768,210.68l-14.09-12-55.13,62.93c9.59,4.22,8.36,12.53,5.08,21.61Z"/><path class="cls-26" d="M1836.88,217.84q4.29-5.39,8.38-11c26.38-36.14,39.1-69.76,38.32-91.78-.65-18.38-9.63-30-26.64-32.42-14.51-2-34.08,3.77-55.29,16.38-28.63,17-60.74,46.42-86.1,81.16-26.38,36.15-39.11,69.77-38.32,91.77.34,9.78,3,17.64,8,23.23,12.07-3.47,18.41-10.57,16.93-22.62-1.48-4.09-1.58-9.44-.64-15.56,2.72-17.65,13.8-40.94,32-65.87,22.52-30.85,50.89-57.11,76.31-72.23,14.83-8.82,28.42-14,38.56-12.57s12.78,10.9,10.82,23.68c-2.72,17.65-13.81,40.95-32,65.88q-3,4.14-6.17,8.15Z"/><path class="cls-36" d="M1740.78,181.66c-5.77,6.6-11.32,13.53-16.56,20.71-18.2,24.93-29.28,48.22-32,65.88-.94,6.11-.84,11.47.64,15.54a22.7,22.7,0,0,1-.43,8.55c7.33-4,10.92-10.38,9.77-19.76-1.47-4.09-1.58-9.43-.64-15.56,2.72-17.64,13.81-40.95,32-65.88C1735.9,187.94,1738.32,184.76,1740.78,181.66Zm95.62,35.76.49.41q4.27-5.39,8.37-11c26.38-36.14,39.1-69.76,38.32-91.78-.65-18.38-9.63-30-26.64-32.42-14.51-2-34.08,3.76-55.29,16.38-25.56,15.2-53.9,40.26-77.72,70.18,21.68-24.94,46.09-45.69,68.38-59,21.21-12.61,40.78-18.42,55.29-16.38,17,2.39,26,14.05,26.64,32.42C1875,148.18,1862.45,181.52,1836.4,217.42Z"/><path class="cls-13" d="M796.51,864.78C852.47,805.93,890.7,729,952,674.9c34-30,75.07-47.55,114-69.77,64.86-37,133.24-83.61,206.93-100.74,58.88-13.69,121.48-14.47,181.31-24,31.86-5.06,66.15-20.12,98.9-16.81,53.58,5.38,30.81,73.74,13.47,100.58-45.43,70.33-140.42,93.25-217.54,102.61-26.84,3.25-65.33-2.45-89.8,10.92-26.39,14.41-50.37,53.3-70.69,74.68-52,54.79-110.59,121.73-180.74,153.73-45.94,21-90.39,28.4-141,18.86-16.51-3.1-49.59-4.25-44.71-27.28"/><path class="cls-12" d="M1586.55,500.16c.58,22.38-10.49,49.38-20,64-45.43,70.33-140.42,93.25-217.54,102.61-26.84,3.25-65.33-2.45-89.8,10.92-26.39,14.41-50.37,53.3-70.69,74.68-52,54.79-110.59,121.73-180.74,153.73a271.08,271.08,0,0,1-38.41,14.36c13-5.83,26.36-10.86,39.41-16.59,44.62-19.53,69.68-54.3,97.4-92.81,7.29-10.12,10.2-23.24,17.15-33.59,9.41-14.07,22.84-26.42,30.36-41.58,5.64-11.41,6.82-28.35,15.73-38,11.42-12.34,34.3-22.88,48.91-30.58,4.87-2.58,18.86-8.14,21-14.12,2.54-7.2-8.38-16.75-2.32-25.41,0-.08,3.66,5.32,4.42,6.08,3.36,3.39,11.39,12,16.75,7.58,10.64-8.71,14.93-56.32,30.53-62.42.41-.16-5,19.63-5.37,20.49-6.87,15.57-21.65,30-.33,40.29,11.85,5.76,29.85,1.59,42.24.19,37.84-4.33,74.44-12.43,111.28-22C1485.66,605.19,1562.89,550.91,1586.55,500.16Z"/><path class="cls-13" d="M1797.76,2608.28c19.72-21.92,53.86-128.9,67.22-159.59,38.88-89.24,94.56-175,141.61-260.26,77-139.67,208.57-241.41,289.48-379.41,40.19-68.55,83.48-138.5,129-203.4,10.33-14.71,32.26-58.61,58.1-47,29,13,41.31,71.08,45.92,98.27,28.47,167-89.3,207.68-116.16,341.62-15.2,75.81-37.42,176.51,77.37,158.49,105.55-16.54,128.28-101.88,164.29-192.17,18.25-45.82,50.85-90,62.19-138.07,21.13-89.72,22.41-181.76,42.49-271.64,10.49-46.85,85.82-196.57,151.15-173.47,25.9,9.14,18.18,54.6,20.22,74.69,8,78.18-2.15,156,4.34,234,3.22,38.46,8.47,77.65,8.69,116.27.16,31.57-5.47,68.82,0,100.26,7.5,43,26.7,84,31.44,127.91,4.26,39.22-8.9,78.59-9.65,117.7-1.85,96.17,4.67,185.6-23.51,279.27-10.16,33.83-30,176.7-43.14,190.52-7.32,7.67-37.77,7.51-47.9,10.6-49.87,15.14-103.24,17.43-154.93,20.9-85.25,5.7-171,2.93-256.4,5.86-119.94,4.14-250.32,27.54-369.43,7.75"/><path class="cls-12" d="M1899.25,2377.87a213.69,213.69,0,0,0-7,33.38c-9.2,75.47,36.43,41.53,107.76,64.47,13.88,4.46,25.81.48,36.67,12.83,21.74,24.74-8.23,76.11,7.29,105.15,21.48,40.16,178.79,68.48,219.19,74.83q8.37,1.29,16.79,2.17c-70.91,5.17-142.15,7.86-209.76-3.38l-272.39-59c19.72-21.92,53.86-128.9,67.22-159.59C1875.37,2424.86,1887,2401.27,1899.25,2377.87Zm1042.43-488.59a159.2,159.2,0,0,0,2,17.53c7.5,43,26.7,84,31.44,127.91,4.26,39.22-8.9,78.59-9.65,117.7-1.85,96.17,4.67,185.6-23.51,279.27-10.16,33.83-30,176.7-43.14,190.52-2.81,3-9,4.74-16.22,6-.61-21.33-.85-39.29-1.5-46.82-1.69-19.18-14.15-37.41-13.24-56,1.93-39.75,26.81-76,18.5-117.94-5.55-27.86-49.33-54-50.67-62.23-6.35-38.35,59.68-219.86,75.14-258,23.92-58.9,19.76-124.71,29.2-186.35C2940.61,1897,2941.17,1893.15,2941.68,1889.28Z"/><path class="cls-12" d="M2316.77,2120.25c-28,3.17-62.74,25-84.91,41.66-1.69,1.29-29.3,20-24.21,24,7.06,5.54,26.25-6,33.84-8,31.18-8.12,66.78-36.47,89.83-59.79"/><path class="cls-12" d="M2480.19,1647.76c-4.93,4.47-5.79,13.5-8.55,19.39-8.44,18-18.71,50-38.52,59.17-9,4.12-23.33,4.82-31.34-1.83-4.61-3.79-8.1-9.76-13.84-12.13-3.72-1.53-15.68-4.27-18.39.27-3.78,6.38,7,13.42,11.42,15,14.11,4.89,30.94,8.44,45.66,11.29,3.86.73,10.62,4,14.5,2.29,4.78-2.15,9.47-18.78,12-23.51,12.66-23.32,19.44-49.89,29.63-74.25"/><path class="cls-12" d="M2920.05,1408.4c-6.68,7-5.15,26.95-7.54,35.9-10,37.2-17.15,63.37,5.69,95.29,2.3,3.23,5.49,16.11,9.57,17.27,1.1.29,1.58-14.5,1.36-15.87-2.57-15.41-16.38-19.44-17.64-35-2.41-29.59,10.49-63.58,10.49-95.8"/><path class="cls-12" d="M2815.28,1440.73c-3.33,8.63-6.73,16-8.45,19.76-21,45.64-62.3,98-43.78,150.27,11.77,33.21,59,51.12,63.3,62.63,2.49,6.7-14,2.69-21.07,3.63-17.8,2.37-34.59-4.41-47.64,11.19-12.84,15.36-18.26,112.74-16.46,135,3,37.5,75.79,29.08,68.23,55-.19.65-6.2-1.4-6.71-1.48-7.48-1.45-13.27-3.41-21.07-3.38-15.92,0-50.34,3-63.48,12.53-12.82,9.28-16,31.68-21.77,45.18-17.16,39.94-56.19,100.4-45.2,145.1,5.82,23.69,26.54,31.22,31.9,44.91.06.16-8.95-1.26-9.19-1.29a165.56,165.56,0,0,0-23.67-1.26c-22.5,0-30.19,11.43-49.6,21.08-40.51,20.17-140.43,62.72-186.91,60.49-29.14-1.4-28.47-47.82-57.83-51.23-29.84-3.5-59.09,44.45-70.67,39.64-4.05-1.7,21.83-28.43,24.83-32.63,19.35-27,40.08-46,47.53-80.81,8.23-38.38,9.44-74.31,27.35-110.33,39.08-78.66,108.52-140.49,129.24-228.44,7.91-33.56,21.45-119.65-10-146.68l2.76-5.87c12.6,23.11,19.09,55,22.17,73.13,28.47,167-89.3,207.68-116.16,341.62-15.2,75.81-37.42,176.51,77.37,158.49,105.55-16.54,128.28-101.88,164.29-192.17,18.25-45.82,50.85-90,62.19-138.07,21.13-89.72,22.41-181.76,42.49-271.64C2764.58,1531.42,2786.46,1481.39,2815.28,1440.73Z"/></g><path class="cls-37" d="M4426.88,161.3c.12-14.6-25.84-60-40.41-60.1l-2235.12,16a26.43,26.43,0,0,0-26.58,26.26l-27.51,705.67c-.11,14.6,33.48,55.3,48,55.41l71.27.55-156.75,189.06L2384.6,906.42l2010,15.56a26.44,26.44,0,0,0,26.59-26.26Z"/><path class="cls-38" d="M2548,479.18s-435.3,522.61-499.81,599a11.3,11.3,0,0,0,2,16.47h0a10.54,10.54,0,0,0,13.48-.93c53.33-51.09,323.09-225.85,323.09-225.85l126.45-312.14Z"/><path class="cls-39" d="M4402.45,123.2a26.43,26.43,0,0,0-26.18-26.66L2126.92,79.13a26.43,26.43,0,0,0-26.58,26.26l-5.65,734.41a26.44,26.44,0,0,0,26.17,26.67l2249.35,17.41a26.45,26.45,0,0,0,26.6-26.26Z"/><path class="cls-40" d="M4357,148.87c.1-13.57-11.2-24.68-25.22-24.78l-2166-16.77c-14-.11-25.49,10.82-25.59,24.39l-5.25,682.39c-.1,13.57,11.2,24.68,25.21,24.78l2166,16.77c14,.11,25.5-10.82,25.6-24.39Z"/><rect class="cls-41" x="2537.08" y="345.43" width="543.73" height="257.71"/><path class="cls-42" d="M2539.6,623.85V604.52H2533v19.33Zm0-33.31V571.22H2533v19.32Zm0-33.3V537.91H2533v19.33Zm0-33.31,0-19.32H2533v19.32Zm0-33.3V471.3H2533v19.33Zm0-33.31V438H2533v19.32Zm0-33.3V404.69H2533V424Zm0-33.31V371.39H2533v19.32Zm0-33.3V338.08H2533v19.33Z"/><path class="cls-42" d="M3082.88,623.85V604.52h-6.56v19.33Zm0-33.31V571.22h-6.56v19.32Zm0-33.3V537.91h-6.56v19.33Zm0-33.31V504.61h-6.56v19.32Zm0-33.3V471.3h-6.56v19.33Zm0-33.31V438h-6.55v19.32Zm0-33.3V404.69h-6.55V424Zm0-33.31V371.39h-6.55v19.32Zm0-33.3V338.08h-6.56v19.33Z"/><path class="cls-43" d="M2837.81,267.26a74.28,74.28,0,0,0-7.65,9.69,84.65,84.65,0,0,0-8.24,14.4,88,88,0,0,0-4.74,14.24,59.54,59.54,0,0,0-2.09,13.82h-12.75q.59-16.85,11-35,6.76-11.26,11.31-15.72h-31.09l.17-11.05h44.06Z"/><rect class="cls-44" x="2372.79" y="636.69" width="1817.79" height="12.85"/><path class="cls-42" d="M2394.47,636.69h-21.68v12.85h15.76v0h5.92Zm64.6,0h-50.24v0h-5.93v12.8h50.24v0h5.93Zm64.6,0h-50.24v0h-5.92v12.8h50.24v0h5.92Zm64.61,0H2538v0h-5.93v12.8h50.25v0h5.93Zm64.6,0h-50.25v0h-5.92v12.8H2647v0h5.93Zm64.6,0h-50.24v0h-5.94v12.8h50.25v0h5.93Zm64.61,0h-50.26v0l-3,12.8h47.29v0h5.93Zm64.59,0h-50.24v0h-5.93v12.8h50.25v0h5.92Zm64.61,0h-50.24v0h-5.94v12.8h50.25v0h5.93Zm64.6,0h-50.25v0h-5.92v12.8H2970v0h5.92Zm64.6,0h-50.25v0l-3,12.8h47.29v0h5.92Zm64.6,0h-50.24v0l-3,12.8h47.28v0h5.92Zm64.61,0h-50.25v0h-5.92v12.8h50.25v0h5.92Zm64.59,0h-50.24v0h-5.92v12.8h50.24v0h5.92Zm64.61,0h-50.24v0h-5.92v12.8H3293v0h5.92Zm64.61,0h-50.26v0h-5.91v12.8h50.25v0h5.92Zm64.59,0h-50.24v0h-5.92v12.8h50.24v0h5.92Zm64.61,0h-50.25v0h-5.91v12.8h50.24v0h5.92Zm64.6,0h-50.25v0h-5.92v12.8h50.26v0h5.91Zm64.6,0h-50.24v0l-3,12.8H3616v0h5.92Zm64.6,0h-50.24v0h-5.91v12.8h50.24v0h5.91Zm64.61,0h-50.25v0H3695v12.8h50.25v0h5.92Zm64.6,0h-50.25v0h-5.91v12.8h50.24v0h5.92Zm64.6,0h-50.24v0h-5.92v12.8h50.25v0h5.91Zm64.61,0h-50.25v0h-5.92v12.8H3939v0h5.92Zm64.6,0h-50.25v0h-5.91v12.8h50.24v0h5.92Zm64.6,0h-50.24v0H4018v12.8h50.24v0h5.92Zm64.61,0h-50.25v0l-3,12.8h47.29v0h5.92Zm14.35,0v0h-5.92v12.8h43.41V636.69Z"/><path class="cls-42" d="M2374.8,631.09l-.25,25.37-26.16-12.26Z"/><path class="cls-42" d="M4185.16,656.09l.25-25.37L4211.57,643Z"/><ellipse class="cls-45" cx="2536.22" cy="637.86" rx="21.83" ry="21.9"/><ellipse class="cls-45" cx="3077.75" cy="637.86" rx="21.83" ry="21.9"/><path class="cls-43" d="M2387.1,703v-8.13a53.14,53.14,0,0,0,7.89-.76,11,11,0,0,0,5.86-3.19,12.15,12.15,0,0,0,2.81-6.79h9.9v60.81h-12.2V703Z"/><path class="cls-43" d="M2458.05,733q2.53-6.09,12-12.88,8.22-5.91,10.65-8.47a12.5,12.5,0,0,0,3.72-8.72,9.67,9.67,0,0,0-2.12-6.42,7.57,7.57,0,0,0-6.12-2.56q-5.43,0-7.39,4.07a20.3,20.3,0,0,0-1.34,7.47h-11.58q.28-7.77,2.81-12.54,4.74-9.1,16.93-9.11c6.4,0,11.51,1.79,15.28,5.35s5.7,8.28,5.7,14.16a19.21,19.21,0,0,1-4,12,40.58,40.58,0,0,1-8.67,7.76l-4.76,3.4q-4.46,3.18-6.13,4.61a13.34,13.34,0,0,0-2.76,3.31h26.47v10.53h-41.53A28.42,28.42,0,0,1,2458.05,733Z"/><path class="cls-43" d="M2537.94,726.25a13.9,13.9,0,0,0,1.15,6c1.45,2.93,4.1,4.4,7.92,4.4a8.76,8.76,0,0,0,6.13-2.41c1.74-1.61,2.59-3.92,2.59-6.94,0-4-1.6-6.67-4.84-8-1.84-.76-4.73-1.13-8.69-1.13v-8.56c3.87-.06,6.58-.43,8.1-1.13,2.65-1.18,4-3.55,4-7.13a8.07,8.07,0,0,0-2-5.66,7.44,7.44,0,0,0-5.7-2.19c-2.84,0-4.9.9-6.24,2.69a11.54,11.54,0,0,0-1.9,7.17h-11.1a29.35,29.35,0,0,1,1.55-8.6,19.1,19.1,0,0,1,4.58-6.58,16.1,16.1,0,0,1,5.56-3.27,23.9,23.9,0,0,1,7.92-1.14q8.67,0,14,4.51a15,15,0,0,1,5.33,12.1,13.45,13.45,0,0,1-3.19,9.06,10.91,10.91,0,0,1-4.17,3.15c1.09,0,2.65.93,4.68,2.81,3,2.82,4.55,6.68,4.55,11.57a19.5,19.5,0,0,1-5.33,13.57q-5.33,5.85-15.78,5.85c-8.59,0-14.53-2.81-17.87-8.43q-2.65-4.49-3-11.74Z"/><path class="cls-43" d="M2640.15,731.83h-6.85v13.08h-11.67V731.83h-24V721.38l22.29-36.9h13.38v38h6.85Zm-18.52-9.36V696.22l-15.17,26.25Z"/><path class="cls-43" d="M2680.9,728.64a11.66,11.66,0,0,0,2.72,6,7.71,7.71,0,0,0,5.86,2.11,7.91,7.91,0,0,0,6.75-3.12,12.79,12.79,0,0,0,2.32-7.86,13.77,13.77,0,0,0-2.16-7.87c-1.47-2.14-3.72-3.21-6.8-3.21a11.63,11.63,0,0,0-3.75.55,7.44,7.44,0,0,0-4.22,3.73l-10.7-.5,4.25-33.59h33.42v10.15h-24.81l-2.16,13.29a24.28,24.28,0,0,1,4.31-2.39,18.12,18.12,0,0,1,6.31-1,18.91,18.91,0,0,1,13.11,5.08q5.61,5.07,5.62,14.76a23.1,23.1,0,0,1-5.41,15.06q-5.37,6.63-16.13,6.62c-5.75,0-10.52-1.55-14.21-4.65s-5.78-7.51-6.18-13.21Z"/><path class="cls-43" d="M2762.12,736.77a7.47,7.47,0,0,0,6.27-3,12.47,12.47,0,0,0,2.27-7.77c0-3.56-.86-6.27-2.6-8.16a8.24,8.24,0,0,0-6.34-2.83,8.47,8.47,0,0,0-5.4,1.84c-2.33,1.82-3.51,4.76-3.51,8.81a12,12,0,0,0,2.63,8A8.38,8.38,0,0,0,2762.12,736.77Zm7.44-37.36a6.1,6.1,0,0,0-1.12-3.23,6.52,6.52,0,0,0-5.81-2.86q-5.82,0-8.26,6.55a39.24,39.24,0,0,0-1.85,10.65,13.26,13.26,0,0,1,5.14-3.86,18.83,18.83,0,0,1,19.93,4.28c3.42,3.66,5.16,8.35,5.16,14a23.74,23.74,0,0,1-5.05,15c-3.4,4.34-8.62,6.5-15.74,6.5-7.62,0-13.27-3.2-16.88-9.6q-4.22-7.5-4.23-19.38a86.48,86.48,0,0,1,.59-11.32,34.93,34.93,0,0,1,4-12.92,21.15,21.15,0,0,1,6.8-7.08,18.3,18.3,0,0,1,10.06-2.69q8.43,0,13.46,4.34a16.49,16.49,0,0,1,5.64,11.56Z"/><path class="cls-43" d="M2854.72,694.25a78.44,78.44,0,0,0-7.43,9.41,77.83,77.83,0,0,0-12.58,27.83,58.07,58.07,0,0,0-2.06,13.42h-12.36q.52-16.36,10.7-34,6.54-10.95,11-15.27h-30.23l.16-10.73h42.8Z"/><path class="cls-43" d="M2904.36,736.69a8.44,8.44,0,0,0,6.42-2.47,9.8,9.8,0,0,0,2.32-7c0-3.1-.8-5.46-2.38-7.06a9.61,9.61,0,0,0-12.73,0c-1.58,1.6-2.38,4-2.38,7.06a9.8,9.8,0,0,0,2.32,7A8.45,8.45,0,0,0,2904.36,736.69Zm-12-24.16c-2.94-1.95-4.84-4.07-5.73-6.35a17.8,17.8,0,0,1-1.31-6.4,15,15,0,0,1,5-11.3q5-4.68,14.05-4.68t14,4.68a15,15,0,0,1,5,11.3,18.46,18.46,0,0,1-1.31,6.4c-.89,2.28-2.79,4.26-5.73,5.93a16.65,16.65,0,0,1,6.74,6.67,19.15,19.15,0,0,1,2.25,9.27,17.35,17.35,0,0,1-5.64,13.06q-5.7,5.4-15.84,5.39t-15.39-5.39a18.06,18.06,0,0,1-5.21-13.06,18.65,18.65,0,0,1,2.32-9.27A14.57,14.57,0,0,1,2892.37,712.53Zm12-3.9a7.34,7.34,0,0,0,5.61-2.09,7.5,7.5,0,0,0,2-5.42,7.63,7.63,0,0,0-2-5.63,7.43,7.43,0,0,0-5.61-2,7.06,7.06,0,0,0-7.66,7.67,7.11,7.11,0,0,0,7.66,7.51Z"/><path class="cls-43" d="M2975.18,683.59q13.84,0,19,12.29,2.92,7,2.94,18.33,0,11-2.81,18.41c-3.59,9.37-10.11,14-19.64,14a20,20,0,0,1-12.25-4c-3.64-2.69-5.7-6.63-6.24-11.8H2968a7.13,7.13,0,0,0,2.25,4.36,7,7,0,0,0,4.9,1.68q5.9,0,8.26-6.55a38.2,38.2,0,0,0,1.64-10.52,12.5,12.5,0,0,1-3.48,3.14,15.62,15.62,0,0,1-8.22,2,18.62,18.62,0,0,1-12.84-5c-3.74-3.34-5.59-8.15-5.59-14.44q0-9.78,5.62-15.83A19,19,0,0,1,2975.18,683.59Zm5.43,30.2q4-2.6,4.06-9,0-5.16-2.4-8.18a8,8,0,0,0-6.58-3,8.16,8.16,0,0,0-5.25,1.72c-2.27,1.78-3.42,4.82-3.42,9.1,0,3.6.72,6.31,2.19,8.11s3.72,2.71,6.77,2.71A8.32,8.32,0,0,0,2980.61,713.79Z"/><path class="cls-43" d="M3029.73,703v-8.13a53,53,0,0,0,7.89-.76,11,11,0,0,0,5.86-3.19,10.37,10.37,0,0,0,2.33-4.36,9.66,9.66,0,0,0,.48-2.43h9.9v60.81H3044V703Z"/><path class="cls-43" d="M3095,736.69c3.53,0,5.86-1.85,7-5.56s1.66-9,1.66-16q0-11-1.66-16.27c-1.09-3.52-3.42-5.29-7-5.29s-5.89,1.77-7,5.29-1.71,8.95-1.71,16.27c0,7,.59,12.34,1.71,16S3091.46,736.69,3095,736.69Zm20.89-21.6q0,15.06-4.65,23.19c-3.11,5.43-8.54,8.14-16.24,8.14s-13.14-2.71-16.24-8.14-4.66-13.15-4.66-23.19,1.55-17.78,4.66-23.23,8.5-8.18,16.24-8.18,13.13,2.72,16.24,8.18S3115.88,705.05,3115.88,715.09Z"/><path class="cls-43" d="M3148.74,703v-8.13a54.15,54.15,0,0,0,7.92-.76,11.06,11.06,0,0,0,5.83-3.19,10.52,10.52,0,0,0,2.36-4.36,10.78,10.78,0,0,0,.45-2.43h9.9v60.81H3163V703Z"/><path class="cls-43" d="M3196.36,703v-8.13a53.16,53.16,0,0,0,7.9-.76,11.08,11.08,0,0,0,5.86-3.19,10.51,10.51,0,0,0,2.35-4.36,10.78,10.78,0,0,0,.45-2.43h9.9v60.81h-12.2V703Z"/><path class="cls-43" d="M3267.77,703v-8.13a53.63,53.63,0,0,0,7.9-.76,11.08,11.08,0,0,0,5.86-3.19,10.71,10.71,0,0,0,2.32-4.36,9.66,9.66,0,0,0,.48-2.43h9.9v60.81H3282V703Z"/><path class="cls-43" d="M3314.92,733q2.57-6.09,12-12.88,8.22-5.91,10.67-8.47a12.63,12.63,0,0,0,3.72-8.72,9.68,9.68,0,0,0-2.14-6.42,7.5,7.5,0,0,0-6.1-2.56c-3.64,0-6.1,1.36-7.41,4.07-.75,1.57-1.18,4-1.34,7.47H3312.8c.19-5.18,1.13-9.36,2.78-12.54q4.78-9.1,16.94-9.11,9.63,0,15.3,5.35c3.8,3.57,5.68,8.28,5.68,14.16a19.16,19.16,0,0,1-4,12,39.33,39.33,0,0,1-8.64,7.76l-4.76,3.4c-3,2.12-5,3.66-6.13,4.61a13.63,13.63,0,0,0-2.78,3.31h26.46v10.53h-41.5A28.87,28.87,0,0,1,3314.92,733Z"/><path class="cls-43" d="M3386.78,703v-8.13a54,54,0,0,0,7.92-.76,11.06,11.06,0,0,0,5.83-3.19,10.41,10.41,0,0,0,2.36-4.36,10.78,10.78,0,0,0,.45-2.43h9.9v60.81H3401V703Z"/><path class="cls-43" d="M3442.43,726.25a13.46,13.46,0,0,0,1.18,6q2.16,4.4,7.89,4.4a8.76,8.76,0,0,0,6.13-2.41c1.74-1.61,2.62-3.92,2.62-6.94q0-6-4.87-8c-1.82-.76-4.73-1.13-8.69-1.13v-8.56c3.88-.06,6.58-.43,8.1-1.13,2.65-1.18,4-3.55,4-7.13a7.94,7.94,0,0,0-2-5.66,7.39,7.39,0,0,0-5.7-2.19c-2.84,0-4.9.9-6.21,2.69a11.16,11.16,0,0,0-1.9,7.17h-11.13a29.69,29.69,0,0,1,1.55-8.6,19.3,19.3,0,0,1,4.6-6.58,15.69,15.69,0,0,1,5.57-3.27,23.71,23.71,0,0,1,7.89-1.14q8.67,0,14,4.51a15,15,0,0,1,5.33,12.1,13.43,13.43,0,0,1-3.16,9.06,11,11,0,0,1-4.2,3.15c1.09,0,2.65.93,4.68,2.81q4.57,4.23,4.58,11.57a19.53,19.53,0,0,1-5.36,13.57q-5.32,5.85-15.75,5.85-12.89,0-17.9-8.43c-1.77-3-2.73-6.91-2.95-11.74Z"/><path class="cls-43" d="M3505.81,703v-8.13a53.63,53.63,0,0,0,7.9-.76,11.27,11.27,0,0,0,5.86-3.19,10.71,10.71,0,0,0,2.32-4.36,9,9,0,0,0,.46-2.43h9.93v60.81h-12.23V703Z"/><path class="cls-43" d="M3592.26,731.83h-6.85v13.08h-11.66V731.83h-24V721.38l22.28-36.9h13.38v38h6.85Zm-18.51-9.36V696.22l-15.17,26.25Z"/><path class="cls-43" d="M3624.82,703v-8.13a53.16,53.16,0,0,0,7.9-.76,11.08,11.08,0,0,0,5.86-3.19,10.51,10.51,0,0,0,2.35-4.36,10.78,10.78,0,0,0,.45-2.43h9.9v60.81h-12.2V703Z"/><path class="cls-43" d="M3680.63,728.64a11.75,11.75,0,0,0,2.73,6,7.65,7.65,0,0,0,5.84,2.11,7.92,7.92,0,0,0,6.77-3.12,13,13,0,0,0,2.3-7.86,13.77,13.77,0,0,0-2.17-7.87c-1.45-2.14-3.69-3.21-6.77-3.21a11.8,11.8,0,0,0-3.77.55,7.46,7.46,0,0,0-4.2,3.73l-10.71-.5,4.26-33.59h33.39v10.15h-24.78l-2.16,13.29a23.92,23.92,0,0,1,4.3-2.39,18.16,18.16,0,0,1,6.29-1,19,19,0,0,1,13.14,5.08c3.74,3.38,5.59,8.3,5.59,14.76a23.24,23.24,0,0,1-5.38,15.06c-3.58,4.42-9,6.62-16.13,6.62q-8.67,0-14.21-4.65t-6.2-13.21Z"/><path class="cls-43" d="M3743.86,703v-8.13a53.61,53.61,0,0,0,7.89-.76,11.27,11.27,0,0,0,5.86-3.19,12.11,12.11,0,0,0,2.78-6.79h9.93v60.81h-12.23V703Z"/><path class="cls-43" d="M3809.49,736.77a7.38,7.38,0,0,0,6.23-3A12.41,12.41,0,0,0,3818,726c0-3.56-.86-6.27-2.57-8.16a8.32,8.32,0,0,0-6.37-2.83,8.51,8.51,0,0,0-5.4,1.84c-2.33,1.82-3.51,4.76-3.51,8.81a11.89,11.89,0,0,0,2.65,8A8.37,8.37,0,0,0,3809.49,736.77Zm7.44-37.36a6.12,6.12,0,0,0-1.13-3.23,6.56,6.56,0,0,0-5.83-2.86c-3.85,0-6.64,2.19-8.27,6.55a41.37,41.37,0,0,0-1.84,10.65,13.3,13.3,0,0,1,5.13-3.86,18.85,18.85,0,0,1,19.94,4.28q5.18,5.49,5.16,14a23.75,23.75,0,0,1-5.06,15q-5.06,6.51-15.73,6.5c-7.62,0-13.27-3.2-16.88-9.6q-4.22-7.5-4.23-19.38a90.14,90.14,0,0,1,.59-11.32,34.56,34.56,0,0,1,4.07-12.92,20.56,20.56,0,0,1,6.79-7.08,18.23,18.23,0,0,1,10-2.69q8.46,0,13.48,4.34a16.62,16.62,0,0,1,5.65,11.56Z"/><path class="cls-43" d="M3862.86,703v-8.13a53.16,53.16,0,0,0,7.9-.76,11,11,0,0,0,5.86-3.19,10.74,10.74,0,0,0,2.35-4.36,10.37,10.37,0,0,0,.46-2.43h9.9v60.81h-12.2V703Z"/><path class="cls-43" d="M3949.69,694.25a77.25,77.25,0,0,0-7.44,9.41,77.83,77.83,0,0,0-12.58,27.83,58.07,58.07,0,0,0-2.06,13.42h-12.36q.52-16.36,10.7-34,6.56-10.95,11-15.27h-30.23l.16-10.73h42.81Z"/><path class="cls-43" d="M3981.87,703v-8.13a54,54,0,0,0,7.92-.76,11,11,0,0,0,5.83-3.19,10.41,10.41,0,0,0,2.36-4.36,10.78,10.78,0,0,0,.45-2.43h9.9v60.81h-12.2V703Z"/><path class="cls-43" d="M4046.94,736.69a8.34,8.34,0,0,0,6.4-2.47,9.8,9.8,0,0,0,2.32-7c0-3.1-.77-5.46-2.35-7.06a9.65,9.65,0,0,0-12.76,0c-1.56,1.6-2.36,4-2.36,7.06a9.8,9.8,0,0,0,2.33,7A8.38,8.38,0,0,0,4046.94,736.69Zm-12-24.16q-4.38-2.92-5.7-6.35a17.8,17.8,0,0,1-1.31-6.4,15,15,0,0,1,5-11.3q5-4.68,14.05-4.68t14,4.68a14.94,14.94,0,0,1,5,11.3,17.85,17.85,0,0,1-1.33,6.4q-1.34,3.42-5.7,5.93a17,17,0,0,1,6.74,6.67,19.15,19.15,0,0,1,2.25,9.27,17.37,17.37,0,0,1-5.67,13.06q-5.67,5.4-15.82,5.39t-15.38-5.39a18.07,18.07,0,0,1-5.22-13.06,18.64,18.64,0,0,1,2.3-9.27A14.8,14.8,0,0,1,4034.93,712.53Zm12-3.9a7.44,7.44,0,0,0,5.62-2.09,7.63,7.63,0,0,0,2-5.42,7.76,7.76,0,0,0-2-5.63,7.53,7.53,0,0,0-5.62-2,7,7,0,0,0-7.65,7.67,7.07,7.07,0,0,0,7.65,7.51Z"/><ellipse class="cls-46" cx="4111.84" cy="736.02" rx="8.16" ry="8.19"/><ellipse class="cls-46" cx="4146.44" cy="736.02" rx="8.16" ry="8.19"/><ellipse class="cls-46" cx="4181" cy="736.02" rx="8.16" ry="8.19"/></g></svg>